<?xml version="1.0" encoding="utf-8"?>
<!-- Generator: Adobe Illustrator 16.0.0, SVG Export Plug-In . SVG Version: 6.00 Build 0)  -->
<!DOCTYPE svg PUBLIC "-//W3C//DTD SVG 1.1//EN" "http://www.w3.org/Graphics/SVG/1.1/DTD/svg11.dtd">
<svg version="1.1" id="图层_1" xmlns="http://www.w3.org/2000/svg" xmlns:xlink="http://www.w3.org/1999/xlink" x="0px" y="0px"
	 width="1100px" height="222px" viewBox="0 0 1100 222" enable-background="new 0 0 1100 222" xml:space="preserve">
<g id="XMLID_4_">
	<g>
		<path d="M599.156-372.022c1.171,2.101,0.604,7.511,0.298,10.099c-1.952-0.624-0.393-4.757-0.895-6.831
			c-1.245,2.119-1.907,4.822-3.269,6.831c-2.455-1.105-2.5-4.628-3.862-6.831c-1.058,1.515,0.656,5.803-0.892,6.831
			c-1.364-2.196-0.212-6.917-0.591-10.099c0.297,0,0.591,0,0.891,0c1.856,2.101,2.589,5.333,3.862,8.022
			C596.86-366.002,596.741-370.278,599.156-372.022z"/>
		<path d="M588.161-371.727c-0.116,1.269-2.487,0.282-3.565,0.597c-0.375,2.891,0.771,7.307-0.592,9.208
			c-1.36-1.803-0.217-6.12-0.597-8.911c-0.604-0.686-2.463-0.11-3.565-0.297c0-0.202,0-0.398,0-0.597
			C581.271-372.708,586.732-372.708,588.161-371.727z"/>
		<path d="M576.873-268.327c0.208,3.309-4.385,2.076-7.131,2.076c-3.17,0-6.539,0-8.916,0c0.954-5.768,0.992-15.334,0-21.096
			c1.197-0.689,3.663-0.102,5.352-0.297c-1.311,5.229-0.253,12.819-0.598,19.016C568.759-267.758,574.11-268.795,576.873-268.327z"
			/>
		<path d="M577.17-294.477c-0.168,2.102-3.733,1.189-5.646,1.189c-134.895,0-271.097,0-406.454,0c-1.632,0-4.921,0.736-5.646-0.889
			c0.023-0.474-0.143-1.133,0.297-1.189c136.886,0,274.566,0,411.803,0C573.156-295.366,576.445-296.104,577.17-294.477z"/>
		<path d="M535.574-299.528c-3.815,0.127-2.234-8.352-2.083-11.885c0.22-4.902,0.339-10.436,0.598-16.342
			c0.463-10.634-1.414-24.72,7.428-26.441c6.233-1.218,10.271,0.859,18.421,0c-2.52-6.86,6.117-7.793,4.454-0.296
			c1.162,0.624,3.42,0.145,5.055,0.296c2.489-0.853,1.149-4.337,3.564-4.753c3.461-0.601,3.082,4.338,1.485,6.533
			c-1.898,2.615-4.534,2.767-9.21,2.677c0.247,6.694,1.967,14.467,3.269,21.095c2.115-1.274,1.714-6.014,5.05-5.352
			c4.499,0.898-2.214,9.392-3.563,11.885c0.915,4.005,1.673,7.326,2.971,11.886c0.682,2.387,4.507,10.193,0.298,10.401
			c-2.897,0.137-3.433-5.604-4.163-8.024c-1.069-3.545-1.843-6.232-2.671-9.211c-2.196,0.5-4.041,6.725-7.429,6.242
			c-0.772-0.111-1.938-1.056-2.08-1.785c-0.71-3.533,7.378-6.824,8.021-10.697c0.252-1.537-0.755-4.33-1.188-6.534
			c-1.311-6.679-2.582-12.636-3.269-19.907c-8.737,1.067-23.684-4.076-21.393,8.02c6.408,1.055,14.585-1.833,16.044,6.242
			c0.692,3.839,0,9.327,0,14.555c0,5.985,0.927,13.096-0.594,16.346c-1.293,2.748-6.559,5.338-9.806,2.968
			c-0.236-1.474-0.096-1.673,0.298-2.968c1.349-1.029,4.607-0.148,5.349-1.787c0.318-9.143,0.856-21.053-0.301-29.711
			c-2.303-1.657-7.329-0.591-10.99-0.889c-0.48,7.743-0.799,18.161-1.188,26.739C537.734-305.417,538.744-299.629,535.574-299.528z"
			/>
		<path d="M558.449-268.327c0.119,3.285-4.361,2.076-7.133,2.076c-3.182,0-6.512,0-8.909,0c0.95-5.967,0.95-15.422,0-21.393
			c1.682,0,3.366,0,5.051,0c-0.646,5.797-0.14,12.742-0.297,19.016C550.357-267.709,555.636-268.859,558.449-268.327z"/>
		<path d="M540.328-266.547c-1.197,0.688-3.663,0.105-5.353,0.297c-0.166-2.707-1.712-4.035-2.077-6.533c-3.071,0-6.145,0-9.211,0
			c-0.869,2.104-2.233,3.707-2.377,6.533c-0.891,0-1.784,0-2.674,0c2.653-7.057,6.994-13.982,8.319-21.394c1.584,0,3.168,0,4.754,0
			C534.594-280.622,536.982-273.112,540.328-266.547z M524.58-274.569c2.377,0,4.754,0,7.131,0c-0.4-2.691-2.178-6.521-3.564-9.211
			C527.166-280.504,525.365-278.045,524.58-274.569z"/>
		<path d="M530.523-313.79c7.909,3.455-12.317,10.195-13.965,8.617c-2.837-2.707,2.237-4.877,4.754-5.346c0-10.105,0-20.205,0-30.31
			c-1.721-0.158-4.219,0.455-5.051-0.591c-0.663-1.221-0.431-2.005,0-3.271c1.101-0.785,3.176-0.58,5.051-0.595
			c0.371-3.592-0.87-8.792,0.893-10.993c1.587-0.629,2.697,0.021,3.564,0.895c0,3.366,0,6.735,0,10.1
			c6.85-2.042,7.353,6.319,0.297,4.457c-0.688,8.917-0.101,19.112-0.297,28.522C527.492-312.657,528.461-313.768,530.523-313.79z"/>
		<path d="M510.616-287.643c1.98,0,3.96,0,5.941,0c-0.493,6.463-0.493,14.938,0,21.394c-1.688,0-3.366,0-5.051,0
			c0.659-5.479,0.125-12.158,0.298-18.124c-2.407,5.912-4.569,12.068-6.834,18.123c-1.188,0-2.377,0-3.564,0
			c-1.979-6.239-4.41-12.028-6.537-18.123c-0.4,5.354-0.748,13.226,0.297,18.123c-0.989,0-1.981,0-2.975,0
			c0.497-6.455,0.497-14.93,0-21.393c2.084,0,4.163,0,6.242,0c1.825,5.502,3.933,10.728,5.942,16.047
			C506.769-276.631,508.563-282.268,510.616-287.643z"/>
		<path d="M503.783-353.901c0.912,4.261-8.348,2.974-13.073,2.974c-9.889,0-21.556,0-31.788,0c-4.294,0-13.656,1.248-12.783-2.974
			c0.596-2.846,11.207-1.78,12.482-1.78c5.743,0,8.67,0,13.964,0c0.942-0.74-0.49-3.86,0.889-4.163
			c0.333-0.761,1.6-0.58,2.678-0.591c1.139,0.841,1.366,2.597,1.188,4.754c4.645,0,8.779,0,14.262,0
			C494.4-355.68,503.2-356.625,503.783-353.901z"/>
		<path d="M503.188-320.323c0,5.55,0.673,11.296,0,14.559c-0.937,4.533-6.702,7.896-10.997,5.346
			c-1.864-4.93,4.372-2.17,6.243-5.346c1.313-2.234,0.595-10.349,0.595-14.559c0-5.394,1.107-11.306-0.595-14.563
			c-1.771-3.381-6.712-1.649-10.695-2.077c0.233,2.784,9.086,6.521,8.02,10.099c-1.347,4.546-6.471-1.72-8.319-3.565
			c-2.552-2.552-4.175-4.412-6.236-6.534c-4.459,0-8.915,0-13.37,0c-1.894,3.253-4.27,6.448-7.43,8.91
			c-1.48,1.159-3.655,3.058-5.943,2.083c-1.482-5.612,6.614-6.347,8.021-10.993c-14.608-3.301-11.286,7.865-11.286,20.794
			c0,2.716,0,6.164,0,9.509c0,3.705,0.369,7.008-2.081,7.131c-3.672,0.185-2.377-11.713-2.377-16.342
			c0-12.625-2.799-26.824,10.399-25.549c-0.023-2.466-2.286-4.243-1.188-6.242c2.13-3.886,5.937,2.406,5.642,6.242
			c8.819,0,17.629,0,26.446,0c1.949-2.213,0.461-7.862,5.346-7.131c1.951,1.88,0.038,5.14-0.591,7.131
			C504.534-342.726,503.188-332.487,503.188-320.323z"/>
		<path d="M481.796-281.998c-0.131,1.024,0.116,1.667,0.297,2.377c-3.202-0.384-8.12-0.565-11.293,0
			c-0.674,0.416-0.105,2.071-0.294,2.97c3.26,0.805,8.474-0.354,10.989,1.189c1.156,2.297,1.21,6.638-0.294,8.619
			c-1.58,0.903-4.994,0.592-8.024,0.592c-2.463,0-6.804,1.07-6.533-1.779c2.07-0.752,7.759-0.057,11.288-0.297
			c0.588-0.805,0.176-2.602,0.297-3.867c-3.315-1.035-9.645,0.938-11.287-1.779c-0.522-1.723-0.381-4.785,0-6.539
			C469.578-283.317,476.885-281.463,481.796-281.998z"/>
		<path d="M461.589-320.026c-1.527,1.83-1.126,8.1-0.291,10.398c7.752,1.16,18.79,0.613,27.034,0.299
			c1.814-1.852,1.599-8.434,0.295-10.697C480.945-320.998,469.272-321.018,461.589-320.026z M459.809-305.172
			c-3.403-1.736-5.3-9.285-3.268-15.451c0.77-2.335,3.072-3.675,5.348-4.157c2.966-0.633,9.144-0.297,14.561-0.297
			c7.652,0,14.79-0.891,16.933,4.157c2.104,4.953,0.579,14.297-3.566,16.047c-3.063,1.287-9.632,0.592-15.151,0.592
			C469.252-304.282,462.59-303.75,459.809-305.172z"/>
		<path d="M458.921-279.621c-3.682-0.446-10.711-1.843-8.619,4.46c2.968,0,5.942,0,8.91,0
			C459.164-276.698,459.396-278.518,458.921-279.621z M463.077-268.327c0.122,0.712-0.544,0.645-0.297,1.484
			c-3.789,1.196-10.866,0.578-15.153,0.295c-2.342-2.545-1.883-11.166-0.594-14.558c3.515-1.407,11.936-1.407,15.446,0
			c1.021,1.849,0.454,5.292,0.598,8.021c-4.156,0-8.319,0-12.481,0c-0.545,0.854-0.425,3.582,0,4.455
			C454.021-267.899,460.133-268.578,463.077-268.327z"/>
		<path d="M442.573-266.25c-1.481,0-2.969,0-4.454,0c0.483-4.627,0.483-11.115,0-15.747c1.388,0,2.771,0,4.16,0
			C442.428-276.795,441.952-270.975,442.573-266.25z"/>
		<path d="M442.279-287.047c0,0.89,0,1.781,0,2.672c-1.286,0-2.576,0-3.862,0c0-0.891,0-1.782,0-2.672
			C439.703-287.047,440.993-287.047,442.279-287.047z"/>
		<path d="M434.554-266.25c-1.488,0-2.971,0-4.457,0c0.491-6.48,0.491-14.91,0-21.393c1.389,0,2.772,0,4.157,0
			C434.438-280.59,433.883-272.811,434.554-266.25z"/>
		<path d="M427.721-336.37c2.914,1.613,7.959,3.206,4.456,6.539c-5.087-0.778-8.824-4.115-12.775-6.242
			c-4.173-2.237-8.305-4.154-12.481-6.534c-4.006,4.964-9.158,11.754-16.934,10.991c-2.353-3.958,5.714-5.548,8.319-7.725
			c3.913-3.266,4.816-6.656,6.536-10.396c-4.082-0.377-9.882,0.969-12.185-1.188c0.045-3.006,2.19-10.036,6.24-7.131
			c0.838,1.456-0.351,2.324-0.291,3.863c10.609,0.38,22.756-0.775,32.383,0.591c0.473,3.321-1.079,6.985-2.678,9.21
			c-0.689,0-1.385,0-2.076,0c-1.738-1.144-0.948-3.53-0.301-5.346c-5.442,0-10.892,0-16.339,0c-2.926,3.357,2.479,4.659,5.349,6.237
			C419.351-341.08,423.056-338.949,427.721-336.37z"/>
		<path d="M429.8-321.811c0.346,2.623,0.886,11.709-2.376,11.588c-4.077-0.151-0.256-12.474-4.457-14.263
			c-3.878-1.646-12.918-0.294-19.907-0.294c-4.729,0-16.736-1.45-18.719,1.483c-2.181,3.229,1.549,12.841-2.673,13.074
			c-3.165,0.174-3.225-10.127-2.081-13.666c0.817-2.55,3.679-4.52,6.237-5.054c4.011-0.832,12.045-0.296,18.719-0.296
			C416.264-329.239,428.496-331.637,429.8-321.811z"/>
		<path d="M425.641-281.104c1.286,3.391,1.744,12.014-0.594,14.557c-3.049,0.318-8.426,0.812-10.996-0.295c0,2.179,0,4.359,0,6.533
			c-1.482,0-2.969,0-4.455,0c0.498-6.552,0.485-15.135,0-21.688c0.302,0.123,1.738-0.144,2.675,0
			c0.428,0.065,1.352,0.896,1.485,0.896c0.523,0.004,1.527-0.796,2.08-0.896C419.071-282.551,422.943-282.137,425.641-281.104z
			 M422.075-268.327c0.49-3.098,0.49-8.198,0-11.294c-1.935-0.487-5.791-0.487-7.725,0c-0.49,3.097-0.49,8.196,0,11.294
			C416.927-268.327,419.5-268.327,422.075-268.327z"/>
		<path d="M376.316-299.822c-2.944-4.562,5.523-4.567,9.508-5.647c8.248-2.236,15.296-5.571,16.048-15.451
			c1.177-1.123,3.107-0.37,3.859,0.599c0.03,3.097-0.25,5.89-1.482,7.722c5.592,2.147,14.535,4.786,21.987,7.133
			c2.665,0.836,8.565,1.026,6.536,5.351c-5.211,0.612-10.353-1.948-15.451-3.565c-5.038-1.602-10.259-3.093-15.155-4.754
			C396.006-303.469,385.941-299.365,376.316-299.822z"/>
		<path d="M389.39-260.307c0.294-6.486,0.85-15.396-0.294-21.393c-0.057-0.254,0.115-0.277,0.294-0.299
			c1.304,0.285,3.901-0.729,3.865,0.895c2.226-1.646,8.138-0.828,11.288-0.596c1.417,2.725,3.027,10.572,1.188,13.963
			c-1.732,3.197-8.94,1.178-12.18,0.895c0.196,1.984-0.392,4.752,0.298,6.236C392.949-259.922,390.783-260.499,389.39-260.307z
			 M401.871-268.627c0.481-3.043,0.481-7.947,0-10.993c-2.077-0.442-5.963-0.521-8.021,0c-0.494,3.001-0.494,7.995,0,10.993
			C395.876-268.137,399.842-268.137,401.871-268.627z"/>
		<path d="M385.527-281.998c0.185,5.17-0.371,11.069,0.297,15.747c-5.003-0.723-10.845,0.891-16.041-0.592
			c-2.275-3.172-0.467-10.435-1.486-14.857c0.901-0.688,3.063-0.102,4.455-0.298c0.192,4.364-0.384,9.499,0.3,13.37
			c2.012,0.662,5.227,0.121,7.723,0.301c1.714-3.123,0.71-9.592,0.597-13.671C382.758-281.998,384.143-281.998,385.527-281.998z"/>
		<path d="M384.635-357.169c-0.26,2.811,0.705,6.842-0.888,8.319c-1.298,0.413-1.756,0.009-2.974-0.297
			C378.976-352.617,380.393-361.525,384.635-357.169z"/>
		<path d="M381.07-343.204c7.784,0.164-1.433,9.57-2.674,12.185c-1.308,0.123-2.295-0.083-2.969-0.597
			C375.051-336.587,379.032-339.665,381.07-343.204z"/>
		<path d="M363.243-345.879c0.805,5.256,0,12.235,0,19.613c0,7.46,1.111,16.123-0.294,20.501c-1.555,4.821-8.686,7.176-13.073,4.155
			c-0.666-5.135,4.418-2.259,7.131-3.862c3.206-1.896,1.783-13.718,1.783-19.606c0-3.542,0-7.335,0-10.696
			c0-6.394,1.161-13.415-5.349-12.479c-1.629,12.595-3.168,25.536-6.239,37.735c-0.663,2.625-1.801,10.582-5.349,9.206
			c-2.829-1.094,0.381-8.538,0.892-10.694c2.644-11.14,4.896-23.283,5.645-35.953c-1.688-0.689-4.652-0.101-6.834-0.294
			c-1.589,12.657-4.162,25.501-7.428,37.437c-0.758,2.763-1.696,10.873-5.348,9.504c-2.847-1.063,0.626-8.598,1.188-10.694
			c2.998-11.178,5.467-23.523,6.83-35.953c-1.512-0.862-5.112,0.363-6.236-0.891c-1.232-2.421,4.074-14.273,6.831-9.208
			c1.177,2.157-1.037,3.01-1.188,5.345C346.581-351.699,361.65-356.319,363.243-345.879z"/>
		<path d="M352.55-285.266c-0.995,1.014-0.597,3.881-0.298,5.353c3.207,0.948,8.831-0.513,11.588,0.887
			c1.316,2.878,1.626,10.408-0.597,12.479c-4.48,0.474-10.973,0.515-15.447,0c0-0.493,0-0.989,0-1.481
			c2.614-1.12,8.949,0.415,12.479-0.599c0-1.979,0-3.961,0-5.94c-2.778-1.386-8.357,0.04-11.587-0.894
			c-1.412-2.508-1.286-9.053,0-11.584c3.981-1.069,11.002-0.684,15.45-0.301c-0.176,0.967,0.201,1.383,0.294,2.08
			C361.041-285.659,355.907-285.825,352.55-285.266z"/>
		<path d="M339.18-268.627c0.128,1.021-0.119,1.666-0.297,2.377c-3.233-0.231-7.49,0.563-9.809-0.592
			c-1.896-2.758-0.959-8.353-1.188-12.778c-0.131-0.858-2.246,0.264-2.377-0.595c0-0.396,0-0.789,0-1.188
			c-0.178-1.171,1.635-0.353,2.377-0.595c0-1.092,0-2.178,0-3.27c1.269-0.121,2.638-0.133,3.565-0.591
			c1.287,0.199,0.276,2.695,0.595,3.86c2.181,0,4.361,0,6.536,0c0,0.691,0,1.387,0,2.082c-2.077,0-4.159,0-6.236,0
			c-0.693,3.072-0.104,7.425-0.301,10.99C333.386-267.858,337.376-268.28,339.18-268.627z"/>
		<path d="M326.403-325.968c4.591,4.282-3.903,5.976-6.837,7.424c-0.49,5.845,1.052,13.728-0.888,18.125
			c-6.341,0.937-2.529-10.699-3.565-16.043c-3.741,0.916-5.976,3.334-10.4,3.566c-3.752-5.729,7.141-6.043,10.4-8.615
			c0-7.034,0-14.063,0-21.096c-2.938-1.031-8.732,0.808-10.4-1.489c1.035-4.68-0.011-14.036,5.646-12.182
			c1.145,2.445-0.451,5.93-0.895,8.617c1.881,0,3.769,0,5.648,0c0.268-4.089-0.612-9.327,0.595-12.476
			c1.016-0.285,1.842-0.93,2.971-0.297c1.83,2.728,0.475,8.637,0.888,12.773c7.954-2.279,8.418,6.842,0.301,4.753
			c-0.692,5.848-0.099,12.979-0.301,19.315C322.235-324.002,323.516-325.79,326.403-325.968z"/>
		<path d="M323.433-266.25c-1.489,0-2.972,0-4.461,0c0.229-3.928,0.878-9.944-0.294-13.37c-1.934-0.487-5.791-0.487-7.725,0
			c-1.156,3.251-0.606,9.638-0.301,13.37c-1.58,0-3.167,0-4.75,0c1.149-5.963,0.598-14.939,0.297-21.393c1.385,0,2.77,0,4.16,0
			c0,1.983,0,3.961,0,5.942c2.213-0.267,8.149-0.622,11.291,0C324.615-278.922,322.237-270.799,323.433-266.25z"/>
		<path d="M298.178-281.104c0.517-1.266,2.724-0.84,4.456-0.895c-1.227,6.4,1.135,16.389-1.485,21.393
			c-3.004,0.191-8.097,0.721-12.182,0.299c-1.04-0.106-3.352,0.576-2.674-1.486c2.412-1.196,8.289,0.47,11.587-0.59
			c0.598-0.893,0.169-2.803,0.298-4.164c-2.042,0.349-8.005,0.568-10.993,0c-2.342-2.543-1.884-11.166-0.595-14.556
			C288.896-282.313,295.94-282.693,298.178-281.104z M297.88-268.327c0.49-3.098,0.49-8.198,0-11.294
			c-1.934-0.487-5.794-0.487-7.725,0c-0.68,3.087-0.112,7.416-0.298,10.993C292.016-268.01,295.248-268.467,297.88-268.327z"/>
		<path d="M291.938-301.908c0.196,3.532-12.149,3.054-15.153,1.789c-7.861-3.313-3.723-19.667-4.753-30.901
			c-6.242,0-12.479,0-18.722,0c-1.423,10.436-5.782,19.51-11.885,26.146c-1.628,1.771-4.323,5.818-7.425,3.266
			c-0.588-3.045,2.52-4.725,4.16-6.533c5.196-5.756,9.018-12.813,10.396-22.877c-4.172-1.182-14.458,2.086-15.744-1.188
			c-1.836-4.665,8.352-3.269,11.884-3.269c5.648,0,10.443,0,15.15,0c0-3.948,0-8.503,0-12.775c0-4.341-0.678-8.8,0.894-11.885
			c1.325-0.44,1.843-0.098,2.972,0.294c1.332,6.988,0.237,16.4,0.595,24.367c4.236,0,9.22,0,14.559,0
			c3.99,0,11.95-1.132,12.479,1.78c0.879,4.819-10.432,1.893-14.56,2.677c-0.546,4.385-0.3,8.958-0.3,13.371
			c0,3.957-0.78,10.565,0.895,12.477C280.038-302.135,291.683-306.495,291.938-301.908z"/>
		<path d="M284.213-357.169c7.85-2.012,0.671,8.544-0.892,10.997c-1.141,1.782-4.478,8.028-7.131,7.722
			c-5.093-0.588,1.94-8.037,3.268-10.099C281.625-351.925,282.825-354.171,284.213-357.169z"/>
		<path d="M282.133-266.25c-1.485,0-2.972,0-4.457,0c0.47-4.614,0.506-11.137,0-15.747c1.388,0,2.772,0,4.159,0
			C281.958-276.774,281.542-271.008,282.133-266.25z"/>
		<path d="M281.836-287.047c0,0.89,0,1.781,0,2.672c-1.287,0-2.576,0-3.862,0c0-0.891,0-1.782,0-2.672
			C279.26-287.047,280.549-287.047,281.836-287.047z"/>
		<path d="M275.296-268.327c0.215,3.309-4.382,2.076-7.128,2.076c-3.17,0-6.539,0-8.916,0c0.954-5.768,0.992-15.334,0-21.096
			c1.197-0.689,3.663-0.102,5.349-0.297c-1.308,5.229-0.25,12.819-0.595,19.016C267.186-267.758,272.536-268.795,275.296-268.327z"
			/>
		<path d="M250.639-268.627c-0.464,0.434-0.262,1.522-0.301,2.377c-3.482-0.273-8.254,0.729-10.396-0.889
			c-1.159-3.203-0.36-8.357-0.595-12.481c-0.229-0.861-2.448,0.272-2.674-0.595c0-0.396,0-0.789,0-1.188
			c-0.116-1.204,1.851-0.327,2.674-0.595c0-1.092,0-2.178,0-3.27c1.075-0.207,2.463-0.109,3.266-0.591
			c1.286,0.199,0.273,2.695,0.594,3.86c2.279,0,4.559,0,6.837,0c0,0.691,0,1.387,0,2.082c-2.181,0-4.361,0-6.537,0
			c-0.386,3.16-0.767,8.887,0.295,11.588C246.061-268.452,248.85-268.04,250.639-268.627z"/>
		<path d="M245.29-349.444c1.349,2.106,7.829,9.793,3.266,10.696c-2.556,0.511-5.419-5.506-6.831-7.725
			c-1.352-2.119-9.136-11.353-2.082-11.288C241.589-355.645,243.003-353.021,245.29-349.444z"/>
		<path d="M232.812-281.7c2.998,2.744,0.606,10.88,1.782,15.449c-1.301-0.285-3.9,0.729-3.862-0.889
			c-2.288,1.625-8.382,0.854-11.588,0.592c-1.836-1.603-1.557-7.773-0.297-9.803c2.888-1.274,8.296-0.023,11.588-0.895
			c0.333-5.104-8.836-1.899-12.182-2.377c0.653-0.436-0.176-2.354,0.891-2.377C223.643-281.84,228.795-282.334,232.812-281.7z
			 M230.138-268.627c0.642-1.53,0.134-4.223,0.297-6.239c-2.867,0.108-6.21-0.269-8.616,0.298c-0.356,1.918-0.553,4.717,0.297,6.242
			C224.712-268.506,228.028-267.965,230.138-268.627z"/>
		<path d="M220.63-344.392c0.243,3.872-8.305,2.376-11.588,2.376c-5.329,0-9.457,0-13.964,0c5.812,9.788,13.067,20.65,19.907,30.901
			c1.987,2.983,6.353,6.54,4.456,10.696c-3.33,1.248-6.554-5.836-8.319-8.617c-6.079-9.541-13.477-20.017-19.315-28.817
			c-2.748,13.272-8.8,24.272-18.121,31.792c-2.758,2.225-6.491,5.867-10.695,4.752c-1.45-3.209,5.567-6.623,8.021-8.617
			c9.124-7.397,14.598-17.821,16.636-31.792c-3.898-0.538-8.399-0.298-13.668-0.298c-3.571,0-11.691,1.329-11.882-2.08
			c-0.211-3.789,8.329-2.377,11.882-2.377c5.467,0,9.645,0,14.263,0c2.169-3.875-1.59-13.676,4.753-13.37
			c2.062,3.206,0.071,9.124,0,13.073c4.291,0.543,9.185,0.297,14.859,0.297C211.752-346.472,220.416-347.762,220.63-344.392z"/>
		<path d="M214.391-268.627c0.006,0.703-0.512,0.873-0.298,1.785c-3.788,1.199-10.865,0.58-15.155,0.295
			c-2.279-2.647-2.279-12.506,0-15.152c4.436-0.09,12.526-1.486,15.155,1.188c0.604,1.973,0.164,4.988,0.298,7.432
			c-4.258,0-8.519,0-12.776,0c-0.675,1.289-0.214,3.688,0.294,4.754C205.996-268.5,210.789-267.967,214.391-268.627z
			 M210.527-275.161c-0.05-1.537,0.185-3.357-0.297-4.461c-3.814-0.479-10.797-1.732-8.916,4.461
			C204.383-275.161,207.458-275.161,210.527-275.161z"/>
		<path d="M194.777-281.998c0.188,0.808-0.374,2.358,0.3,2.675c-1.479,0.46-5.237-0.525-7.13,0.297
			c-0.488,3.624-0.488,9.154,0,12.775c-1.587,0-3.174,0-4.754,0c1.09-4.287,0.576-10.979,0.294-15.746
			c1.21,0.383,4.056-0.883,3.866,0.895C188.758-282.473,192.127-281.875,194.777-281.998z"/>
		<path d="M175.763-267.139c-2.778,1.617-9.374,0.865-13.071,0.592c-1.746-2.605-2.303-13.059-1.485-18.121
			c0.653-4.045,5.634-2.975,10.993-2.975c2.381,0,6.748-1.129,6.534,1.785c-2.523,1.002-9.294-0.371-12.773,0.592
			c-0.687,4.861-0.104,10.987-0.297,16.342c1.916,1.039,6.539,0.675,8.91,0.297c1.161-1.81,0.359-5.586,0.595-8.317
			c-2.437-0.058-6.258,0.073-7.722,0c0-0.795,0-1.584,0-2.377c4.159,0,8.316,0,12.476,0c-1.091,3.256-0.636,9.354-0.295,13.072
			C178.421-266.631,175.572-265.368,175.763-267.139z"/>
	</g>
</g>
<g id="XMLID_1_">
	<g>
		<path fill="#C02E3C" d="M127.62-351.457c-0.375,6.286-10.158,6.24-10.309-0.158c-0.065-2.79,1.705-4.757,4.373-5.154
			C125.546-357.344,127.816-354.737,127.62-351.457z"/>
		<path fill="#C02E3C" d="M105.129-276.801c0-1.664,0-3.328,0-4.996c-0.887,0-1.771,0-2.655,0c0-0.623,0-1.248,0-1.875
			c2.03,0,4.061,0,6.091,0c0,2.291,0,4.582,0,6.871C107.42-276.801,106.274-276.801,105.129-276.801z"/>
		<path fill="#C02E3C" d="M104.348-276.801c-3.229,0-6.455,0-9.684,0c0-4.732,0-9.474,0-14.211c4.634,0,9.267,0,13.9,0
			c0,1.563,0,3.125,0,4.686c-1.042,0-2.082,0-3.124,0c-0.614,0.096-0.184-0.857-0.312-1.25c-2.292,0-4.582,0-6.873,0
			c-0.192,1.964-0.417,5.313,0.155,7.031c1.425,0.656,4.01,0.15,5.937,0.309C104.348-279.09,104.348-277.946,104.348-276.801z"/>
		<path fill="#C02E3C" d="M90.759-350.052c-1.606-0.423-3.085-0.976-4.842-1.25c1.241-0.789,3.078-0.983,4.686-1.404
			c0.614-1.521,0.965-3.305,1.406-5c0.658,1.423,0.944,3.22,1.405,4.842c1.553,0.479,3.094,0.967,4.842,1.25
			c-1.211,0.82-3.049,1.014-4.686,1.407c-0.588,1.546-0.961,3.308-1.405,4.996C91.506-346.634,91.22-348.431,90.759-350.052z"/>
		<path fill="#C02E3C" d="M82.793-290.856c0.99-0.361,2.653-0.053,3.904-0.156c2.073,4.752,4.371,9.271,6.404,14.058
			c-3.854,0-7.705,0-11.559,0c0.469-0.935,0.938-1.871,1.405-2.81c1.667,0,3.332,0,4.998,0
			C86.337-283.573,84.644-287.292,82.793-290.856z"/>
		<path fill="#C02E3C" d="M74.983-276.801c2.147-4.774,4.657-9.188,6.873-13.896c0.787,1.086,1.191,2.557,1.874,3.749
			c-1.498,3.553-3.455,6.646-4.998,10.149C77.483-276.801,76.233-276.801,74.983-276.801z"/>
		<path fill="#C02E3C" d="M69.828-287.105c-0.949-0.562-2.8-0.222-4.217-0.313c0-1.198,0-2.393,0-3.594c2.707,0,5.416,0,8.122,0
			c0,4.687,0,9.371,0,14.056c-4.375,0.366-9.423,0.057-14.058,0.157c0-4.789,0-9.576,0-14.369c1.302,0,2.604,0,3.905,0
			c0,3.49,0,6.979,0,10.466c1.673,0.266,4.417,0.254,6.092,0C70.272-282.215,69.996-285.34,69.828-287.105z"/>
		<path fill="#C02E3C" d="M113.719-332.245c4.054,12.295,9.915,22.779,18.743,30.301c3.113-7.936,4.063-21.26,1.249-30.301
			C127.047-332.245,120.384-332.245,113.719-332.245z M118.404-357.392c-2.979-2.697-6.285-5.067-9.996-7.029
			c0.13,10.49,1.612,19.629,3.905,27.958c6.664-0.104,13.744,0.208,20.148-0.157c-1.468-3.685-3.114-7.192-5.154-10.307
			C133.542-352.595,124.756-362.345,118.404-357.392z M35.936-301.633c8.79-7.194,14.927-18.392,19.211-30.612
			c-6.872,0-13.744,0-20.617,0C31.663-323.141,32.637-309.461,35.936-301.633z M60.145-364.735
			c-11.195,6.349-19.688,15.404-24.365,28.272c6.872,0,13.744,0,20.617,0C58.627-344.801,60.473-354.357,60.145-364.735z
			 M87.947-261.645c-18.715,0.82-32.59-5.96-42.484-14.842c-10.229-9.178-17.516-21.374-18.899-38.732
			c-1.485-18.629,6.053-33.292,14.683-42.643c6.803-7.372,15.122-13.271,26.553-16.712c3.917-1.179,8.359-1.92,12.495-2.185
			c18.525-1.194,33.242,6.09,42.797,14.838c9.809,8.978,17.237,21.799,18.587,39.047c1.432,18.324-6.178,33.197-14.838,42.486
			C118.12-271.043,105.125-262.405,87.947-261.645z M103.566-366.764c-9.897-4.795-28.4-4.979-38.423-0.157
			c0.186,11.486-1.306,21.29-3.437,30.458c15.099,0,30.196,0,45.295,0C104.888-345.593,103.393-355.344,103.566-366.764z
			 M84.043-293.51c-7.892-0.008-14.483-4.179-18.588-8.902c-4.425-5.096-7.305-11.016-8.746-18.9
			c-3.271,7.76-7.588,14.811-12.651,20.619c-1.732,1.982-3.715,3.68-5.154,5.777c8.64,14.34,22.648,27.088,45.296,27.021
			c22.879-0.065,36.655-12.913,45.296-27.332c-3.341-3.917-6.882-7.515-9.841-11.87c-2.938-4.33-5.399-9.105-7.653-14.215
			c-0.009-0.094-0.022-0.185-0.155-0.156c-1.509,7.929-4.215,14.047-8.902,19.213C98.769-297.661,92.194-293.502,84.043-293.51z
			 M102.941-313.192c2.791-5.215,4.85-11.786,3.905-19.053c-14.995,0-29.989,0-44.983,0c-0.221,0.039-0.178,0.34-0.313,0.469
			c-0.555,9.577,2.383,16.887,6.717,22.959c4.732,6.633,13.802,12.633,23.272,7.809C96.277-303.424,100.229-308.122,102.941-313.192
			z"/>
	</g>
</g>
<g id="XMLID_2_">
	<g>
		<path fill="#B2251D" d="M173.102,59.54c-0.609,10.214-16.506,10.139-16.752-0.256c-0.105-4.535,2.771-7.73,7.106-8.374
			C169.732,49.972,173.42,54.209,173.102,59.54z"/>
		<path fill="#B2251D" d="M136.554,180.852c0-2.703,0-5.408,0-8.118c-1.44,0-2.877,0-4.313,0c0-1.013,0-2.027,0-3.047
			c3.298,0,6.599,0,9.897,0c0,3.723,0,7.446,0,11.165C140.277,180.852,138.415,180.852,136.554,180.852z"/>
		<path fill="#B2251D" d="M135.286,180.852c-5.248,0-10.489,0-15.737,0c0-7.689,0-15.395,0-23.092c7.53,0,15.059,0,22.587,0
			c0,2.539,0,5.078,0,7.614c-1.693,0-3.383,0-5.077,0c-0.998,0.155-0.299-1.395-0.507-2.031c-3.724,0-7.446,0-11.168,0
			c-0.312,3.19-0.678,8.632,0.252,11.425c2.316,1.066,6.516,0.245,9.646,0.502C135.286,177.133,135.286,178.992,135.286,180.852z"/>
		<path fill="#B2251D" d="M113.204,61.823c-2.61-0.689-5.014-1.587-7.868-2.031c2.017-1.283,5.002-1.598,7.615-2.282
			c0.998-2.473,1.568-5.371,2.285-8.125c1.069,2.311,1.534,5.232,2.284,7.867c2.522,0.778,5.027,1.571,7.868,2.032
			c-1.968,1.333-4.955,1.647-7.615,2.286c-0.955,2.513-1.562,5.375-2.282,8.117C114.417,67.377,113.952,64.458,113.204,61.823z"/>
		<path fill="#B2251D" d="M100.259,158.013c1.608-0.586,4.311-0.085,6.344-0.253c3.368,7.721,7.103,15.065,10.406,22.842
			c-6.263,0-12.521,0-18.783,0c0.762-1.518,1.524-3.039,2.283-4.563c2.708,0,5.415,0,8.121,0
			C106.018,169.849,103.267,163.806,100.259,158.013z"/>
		<path fill="#B2251D" d="M87.568,180.852c3.489-7.759,7.567-14.93,11.167-22.581c1.279,1.764,1.936,4.155,3.046,6.092
			c-2.434,5.773-5.615,10.799-8.122,16.492C91.63,180.852,89.6,180.852,87.568,180.852z"/>
		<path fill="#B2251D" d="M79.191,164.109c-1.542-0.913-4.55-0.361-6.853-0.51c0-1.946,0-3.887,0-5.84c4.4,0,8.801,0,13.198,0
			c0,7.616,0,15.227,0,22.84c-7.109,0.596-15.312,0.093-22.844,0.255c0-7.782,0-15.561,0-23.35c2.116,0,4.231,0,6.346,0
			c0,5.673,0,11.341,0,17.008c2.719,0.432,7.177,0.412,9.899,0C79.913,172.054,79.465,166.978,79.191,164.109z"/>
		<path fill="#B2251D" d="M150.513,90.759c6.587,19.979,16.111,37.016,30.457,49.237c5.058-12.896,6.602-34.546,2.03-49.237
			C172.17,90.759,161.343,90.759,150.513,90.759z M158.126,49.896c-4.841-4.382-10.213-8.236-16.243-11.422
			c0.212,17.046,2.619,31.896,6.345,45.432c10.83-0.17,22.334,0.336,32.74-0.256c-2.385-5.989-5.061-11.687-8.375-16.748
			C182.725,57.691,168.448,41.847,158.126,49.896z M24.118,140.501c14.284-11.69,24.256-29.885,31.217-49.745
			c-11.167,0-22.333,0-33.502,0C17.175,105.553,18.757,127.779,24.118,140.501z M63.458,37.963
			C45.264,48.28,31.464,62.995,23.864,83.905c11.167,0,22.333,0,33.502,0C60.99,70.355,63.99,54.827,63.458,37.963z M108.634,205.48
			c-30.411,1.332-52.958-9.685-69.035-24.117c-16.622-14.915-28.463-34.733-30.71-62.938c-2.413-30.273,9.836-54.098,23.859-69.293
			c11.055-11.979,24.573-21.565,43.148-27.157c6.364-1.915,13.583-3.12,20.303-3.55c30.103-1.94,54.018,9.896,69.543,24.111
			c15.939,14.588,28.011,35.422,30.204,63.45c2.327,29.776-10.04,53.944-24.111,69.039
			C157.665,190.209,136.548,204.246,108.634,205.48z M134.015,34.666c-16.083-7.792-46.149-8.09-62.436-0.254
			c0.302,18.665-2.123,34.594-5.585,49.494c24.535,0,49.067,0,73.603,0C136.162,69.068,133.734,53.222,134.015,34.666z
			 M102.291,153.7c-12.825-0.013-23.535-6.791-30.205-14.466c-7.191-8.28-11.871-17.9-14.212-30.711
			c-5.316,12.608-12.33,24.066-20.557,33.504c-2.816,3.221-6.038,5.979-8.376,9.389c14.041,23.302,36.802,44.016,73.604,43.906
			c37.179-0.105,59.563-20.984,73.605-44.414c-5.43-6.364-11.183-12.211-15.992-19.287c-4.773-7.037-8.772-14.796-12.436-23.098
			c-0.014-0.152-0.036-0.301-0.253-0.254c-2.451,12.884-6.848,22.825-14.465,31.221C126.221,146.955,115.535,153.713,102.291,153.7z
			 M132.999,121.719c4.536-8.474,7.881-19.152,6.345-30.96c-24.366,0-48.73,0-73.096,0c-0.359,0.063-0.289,0.553-0.509,0.762
			c-0.901,15.563,3.873,27.439,10.916,37.308c7.688,10.777,22.427,20.528,37.816,12.688
			C122.17,137.59,128.592,129.959,132.999,121.719z"/>
	</g>
</g>
<path fill="#C02E3C" d="M619.727-321.942c-1.146,1.908-3.69,2.674-5.729,1.527l-0.254-0.129c-2.037-1.271-2.674-3.818-1.527-5.855
	l9.166-15.149c1.146-2.037,3.691-2.545,5.729-1.4l0.127,0.127c2.037,1.146,2.801,3.691,1.526,5.729L619.727-321.942z
	 M638.441-274.077c6.491-2.163,11.329-4.709,14.767-7.512c3.438-2.799,5.729-5.854,6.62-9.418c0.765-2.293,1.146-4.838,1.399-7.385
	c0.128-2.291,2.037-3.818,4.201-3.818h0.255c1.146,0,2.164,0.254,3.056,1.271c0.765,0.764,1.146,1.782,1.146,3.057
	c-0.128,1.908-0.382,3.817-0.637,5.474c-0.382,2.673-1.146,5.22-2.164,7.511l51.686,15.914c2.165,0.637,3.438,2.928,2.675,5.219
	v0.254c-0.765,2.166-3.057,3.312-5.348,2.674l-52.705-16.422l-1.018-0.381c-0.637,0.637-1.146,1.271-1.782,1.781
	c-9.548,8.783-28.771,13.24-42.521,15.658c-2.292,0.383-4.583-1.145-4.839-3.438v-0.381c-0.382-2.164,1.146-4.328,3.312-4.839
	C625.584-270.256,632.84-272.167,638.441-274.077z M706.422-301.064c0-2.038-0.637-3.819-2.037-5.22
	c-1.526-1.4-3.31-2.037-5.219-2.037h-63.78c-2.036,0-3.818,0.637-5.22,2.037s-2.037,3.182-2.037,5.22v15.913
	c0,2.418-1.909,4.2-4.201,4.2h-0.127c-2.291,0-4.201-1.782-4.201-4.2v-15.913c0-6.493,3.565-12.095,9.55-14.641
	c2.036-0.765,3.944-1.272,6.236-1.272h63.78c2.164,0,4.328,0.508,6.11,1.272c3.945,1.655,6.747,4.583,8.529,8.401
	c0.892,2.037,1.272,4.073,1.272,6.238v15.913c0,2.418-1.91,4.2-4.202,4.2h-0.254c-2.291,0-4.201-1.782-4.201-4.2L706.422-301.064
	L706.422-301.064z M630.039-357.716c0,2.292-1.91,4.201-4.201,4.201h-0.127c-2.419,0-4.201-1.91-4.201-4.201v-9.803
	c0-2.418,1.782-4.201,4.201-4.201h0.127c2.291,0,4.201,1.783,4.201,4.201V-357.716z M655.755-364.335h58.179
	c1.4,0,2.547,0.636,3.438,1.782c0.763,1.019,1.018,2.418,0.509,3.692l-3.438,10.821c-0.765,2.164-3.057,3.31-5.221,2.673
	c-1.272-0.382-2.036-1.146-2.545-2.164c-0.511-1.019-0.638-2.165-0.256-3.311l1.655-4.965H676.76c0,0.382,0,0.637-0.127,0.891
	l-1.527,4.965c0.255,0,0.509,0.128,0.764,0.254l43.921,23.934c2.037,1.273,2.801,3.82,1.655,5.728
	c-1.146,2.166-3.692,2.802-5.729,1.782l-44.048-24.061c-0.128,0-0.128,0-0.254-0.127c-4.457,8.02-10.694,14.258-18.588,18.332
	c-2.673,1.401-5.475,2.546-8.274,3.692c-1.146,0.255-2.292,0.127-3.437-0.382c-1.021-0.637-1.656-1.528-1.91-2.674l-0.127-0.382
	c-0.51-2.036,0.636-4.201,2.673-4.838c2.419-0.891,4.711-1.782,6.874-2.928c7.002-3.691,12.35-9.419,16.168-16.422
	c1.146-2.418,2.292-4.837,3.056-7.766h-19.096c-3.056,0-5.093-3.183-3.692-5.983l4.201-8.911c1.02-2.165,3.438-3.055,5.603-2.037
	h0.127c2.037,1.146,2.928,3.565,2.037,5.601L655.755-364.335z"/>
<path fill="#C02E3C" d="M745.891-344.221c1.91,0,3.691,0.382,5.348,1.019c4.965,2.292,8.273,7.001,8.273,12.477v55.759
	c0,2.801,2.037,4.966,4.838,4.966h3.057c2.292,0,4.201,1.78,4.201,4.2v0.127c0,2.293-1.909,4.203-4.201,4.203h-3.057
	c-7.256,0-13.367-6.112-13.367-13.496v-55.759c0-1.401-0.509-2.674-1.399-3.438c-1.019-0.892-2.292-1.4-3.691-1.4h-4.583
	c-2.291,0-4.201-1.91-4.201-4.202v-0.254c0-2.292,1.91-4.201,4.201-4.201L745.891-344.221L745.891-344.221z M757.348-357.716
	c0,2.164-1.781,4.073-4.201,4.073h-0.254c-2.164,0-4.073-1.91-4.073-4.073v-14.385c0-2.292,1.909-4.201,4.073-4.201h0.254
	c2.42,0,4.201,1.91,4.201,4.201V-357.716z M823.801-373.247c2.165,0,4.201,0.509,6.111,1.273c3.947,1.655,6.747,4.583,8.529,8.401
	c0.765,2.038,1.271,3.947,1.271,6.239v79.82c0,2.039,0.637,3.692,2.037,5.094c1.4,1.399,2.929,2.037,4.838,2.164
	c2.165,0,3.946,1.91,3.946,4.074v0.254c0,1.146-0.382,2.164-1.272,3.055c-0.765,0.766-1.909,1.146-3.056,1.146
	c-6.11-0.254-11.457-3.817-13.876-9.547c-0.764-2.038-1.273-3.946-1.273-6.239v-79.82c0-2.165-0.637-3.947-2.036-5.22
	c-1.399-1.4-3.184-2.165-5.221-2.165h-25.206v40.865h22.661c2.418,0,4.201,1.782,4.201,4.201v0.254c0,2.291-1.783,4.074-4.201,4.074
	h-22.661v49.395c0,2.291-1.909,4.201-4.2,4.201h-0.255c-2.419,0-4.201-1.91-4.201-4.201v-49.395h-15.148
	c-2.419,0-4.201-1.783-4.201-4.074v-0.254c0-2.419,1.782-4.201,4.201-4.201h15.148v-40.864h-14.259
	c-2.291,0-4.201-1.909-4.201-4.074v-0.254c0-2.292,1.91-4.201,4.201-4.201H823.801z"/>
<path fill="#C02E3C" d="M969.061-373.502c2.164,0,4.201,1.91,4.201,4.201v0.128c0,2.291-2.037,4.201-4.201,4.201h-43.538v57.16
	h47.739c2.292,0,4.201,1.781,4.201,4.201v0.254c0,2.164-1.909,4.201-4.201,4.201h-47.739v35.392c0,2.293-1.909,4.2-4.2,4.2h-0.128
	c-2.291,0-4.201-1.907-4.201-4.2v-35.392h-47.866c-2.165,0-4.201-2.037-4.201-4.201v-0.254c0-2.42,2.036-4.201,4.201-4.201h47.866
	v-57.16h-43.666c-2.291,0-4.201-1.91-4.201-4.201v-0.128c0-2.292,1.91-4.201,4.201-4.201H969.061z M896.369-322.962
	c0.637,2.165-0.383,4.458-2.419,5.348l-0.255,0.127c-2.291,0.764-4.709-0.381-5.475-2.547l-11.712-31.698
	c-0.637-2.038,0.382-4.456,2.545-5.348l0.256-0.127c2.164-0.763,4.583,0.382,5.347,2.547L896.369-322.962z M961.041-334.673
	c-1.91,5.092-4.201,10.311-6.493,15.148c-1.019,2.164-3.565,2.929-5.729,1.91h-0.128c-2.035-1.021-2.928-3.69-1.781-5.602
	c2.164-4.837,4.201-9.548,6.109-14.513c1.91-5.092,3.564-10.438,4.966-16.294c0.638-2.165,2.802-3.565,5.093-3.184
	c1.146,0.255,2.036,0.892,2.801,2.038c0.509,0.891,0.764,2.037,0.382,3.182C964.859-345.749,963.077-340.02,961.041-334.673z"/>
<path fill="#C02E3C" d="M997.581-302.592c0-2.291,0.383-4.201,1.272-6.238c1.653-3.818,4.455-6.746,8.529-8.401
	c1.781-0.892,3.946-1.272,6.11-1.272h70.018c2.164,0,4.201,0.382,6.111,1.272c3.946,1.655,6.747,4.583,8.401,8.401
	c1.019,2.037,1.273,3.947,1.273,6.238v25.843c0,2.292-0.256,4.329-1.273,6.237c-1.654,3.946-4.456,6.748-8.401,8.53
	c-1.91,0.765-3.947,1.272-6.111,1.272h-70.018c-2.164,0-4.329-0.51-6.11-1.272c-4.074-1.782-6.876-4.584-8.529-8.53
	c-0.891-1.908-1.272-3.945-1.272-6.237V-302.592L997.581-302.592z M1097.389-343.075c0,2.038-0.51,4.201-1.272,6.237
	c-1.655,3.82-4.583,6.749-8.402,8.275c-2.037,0.892-4.072,1.401-6.365,1.401h-77.273c-1.4,0-2.545-0.637-3.438-1.783
	c-0.765-1.018-1.02-2.418-0.509-3.692l12.856-39.464c0.638-2.292,2.929-3.438,5.221-2.801c1.146,0.509,1.909,1.018,2.546,2.037
	c0.637,1.146,0.637,2.292,0.255,3.311l-10.95,33.735h71.291c2.164,0,3.818-0.764,5.221-2.164c1.399-1.4,2.163-3.055,2.163-5.092
	v-12.222c0-2.419,1.909-4.201,4.201-4.201h0.255c2.292,0,4.201,1.782,4.201,4.201V-343.075z M1006.11-276.75
	c0,2.165,0.764,3.692,2.163,5.22c1.528,1.4,3.184,2.164,5.221,2.164h70.018c1.91,0,3.692-0.764,5.093-2.164
	c1.4-1.527,2.163-3.055,2.163-5.22v-25.843c0-2.037-0.763-3.691-2.163-5.092c-1.399-1.402-3.183-2.293-5.093-2.293h-70.018
	c-2.037,0-3.691,0.893-5.221,2.293c-1.399,1.399-2.164,3.055-2.164,5.092L1006.11-276.75L1006.11-276.75z"/>
<g>
	<g>
		<path fill="#B2251D" d="M307.092,66.577l3.943-22.369h25.313l-3.944,22.369h54.745l-3.218,18.248h-51.803l24.838,69.461
			c0.871,3.929,3.704,5.693,8.484,5.298h5.298l-3.323,18.837h-10.595c-10.663,0.387-17.105-3.146-19.322-10.595l-23.903-64.752
			l-45.455,64.163c-3.186,4.709-6.261,7.651-9.209,8.828c-2.562,1.179-8.36,1.767-17.383,1.767h-8.241l3.114-17.66h5.887
			c4.639,0.398,8.28-1.369,10.94-5.296l48.26-70.051h-51.8l3.217-18.248H307.092z"/>
		<path fill="#B2251D" d="M465.056,45.386h22.369l-10.588,60.042h55.335l-3.323,18.838h-25.901l-6.225,35.318
			c0.106,1.573,0.76,2.354,1.937,2.354h22.958l-3.112,17.658h-32.376c-9.419,0-13.569-4.322-12.434-12.95l7.576-42.971h-31.787
			l-15.228,42.971c-3.094,8.628-8.96,12.95-17.588,12.95h-32.376l3.112-17.658h19.426c2.355,0,4.126-1.178,5.332-3.531
			l13.777-34.731h-31.787l3.216-18.248h57.101L465.056,45.386z M408.336,46.563h24.723l4.126,30.021
			c0.622,3.145,2.702,4.709,6.232,4.709h6.477l-3.011,17.072h-21.78c-7.529,0.396-11.478-3.92-11.843-12.952L408.336,46.563z
			 M518.207,47.739h23.546l-15.852,36.498c-3.77,10.208-9.501,14.918-17.209,14.128h-22.37l3.219-18.25h10.598
			c2.601,0.792,4.677-0.975,6.231-5.297L518.207,47.739z"/>
		<path fill="#B2251D" d="M555.813,44.796h20.014l1.594,7.652c0.299,2.752,1.856,3.928,4.678,3.533h11.772l-2.805,15.893h-20.603
			c-6.353,0.395-9.832-2.152-10.423-7.653L555.813,44.796z M568.904,80.704h18.248l-11.179,20.015
			c-2.544,5.501-7.306,8.049-14.299,7.652h-17.072l2.596-14.715h10.596c2.739,0,4.485-0.976,5.226-2.943L568.904,80.704z
			 M594.229,150.754l2.594-14.715h20.602l-2.489,14.127l23.339,11.185c3.325,1.177,6.163,1.765,8.517,1.765h22.37l-2.698,15.306
			h-31.198c-5.103,0-9.28-0.79-12.534-2.355l-21.09-10.596l-25.414,10.596c-5.448,1.959-9.938,2.944-13.47,2.944h-30.021
			l2.699-15.305h21.779c3.53,0,6.999-0.781,10.426-2.354L594.229,150.754z M538.376,153.697l6.853-38.851h131.267l-6.849,38.851
			h-20.604l3.946-22.367h-90.064l-3.946,22.367H538.376z M610.286,93.066c2.743,0,4.485-0.974,5.229-2.943l13.055-20.603h20.602
			l-4.19,7.064h12.362l4.088,13.538c0.366,2.355,1.764,3.34,4.188,2.943h14.719l-2.806,15.894H652.22
			c-4.391,0.396-7.146-1.766-8.271-6.475l-4.159-16.482l-9.279,15.893c-2.404,4.709-6.315,6.872-11.734,6.475H589.93l2.698-15.305
			H610.286z M606.233,55.982c1.886,0.395,3.235-0.59,4.047-2.944l3.809-8.242h19.424l-2.007,4.708h57.1l-5.189,29.434h-16.482
			l2.386-13.539h-45.325l-1.699,2.942c-1.204,2.355-3.53,3.341-6.993,2.944h-18.246l2.701-15.304H606.233z"/>
		<path fill="#B2251D" d="M699.42,108.371l3.114-17.658h28.256l-11.938,67.695c-0.417,2.354,0.553,3.531,2.907,3.531h7.653
			l-3.01,17.071h-20.014c-7.922,0.387-11.024-3.144-9.316-10.598l10.587-60.042H699.42z M710.805,47.151h34.729l-3.112,17.659
			h-34.733L710.805,47.151z M753.604,64.811l3.218-18.248h81.234l-19.826,112.432c-0.88,2.752,0.282,3.929,3.498,3.532h1.767
			l-2.907,16.482h-14.715c-4.709,0-7.715-0.792-9.006-2.354c-1.291-1.572-1.45-5.105-0.483-10.595l7.993-45.328h-26.489
			l-10.379,58.864h-19.426l10.379-58.864h-15.306l3.111-17.658h15.304l6.75-38.264H753.604z M807.485,103.074l6.749-38.264h-26.488
			l-6.749,38.264H807.485z"/>
	</g>
	<g>
		<path fill="#4C4C4C" d="M896.688,179.003L875.2,133.045l-0.299,0.297v45.661h-11.042v-55.212h17.606l20.892,43.572l0.298-0.299
			v-43.273h11.042v55.212H896.688z"/>
		<path fill="#4C4C4C" d="M922.65,123.791h37.006v9.254h-25.068v12.83h23.276v9.252h-23.276v14.623h25.964v9.253H922.65V123.791z"/>
		<path fill="#4C4C4C" d="M996.96,123.791h13.43l9.55,41.484h0.299l8.952-41.484h11.043l-14.027,55.212h-13.129l-9.851-42.08
			l-10.743,42.08h-13.43l-13.429-55.212h12.236l8.356,41.484L996.96,123.791z"/>
		<path fill="#4C4C4C" d="M1075.746,139.608c-0.2-5.567-3.185-8.355-8.953-8.355c-5.773,0.401-8.758,2.788-8.953,7.163
			c-0.401,4.177,2.984,6.766,10.147,7.758c0.194,0,0.694,0.104,1.492,0.299c12.931,2.589,19.295,7.662,19.099,15.221
			c-0.2,11.541-8.056,17.505-23.575,17.906c-14.325,0-21.39-6.066-21.188-18.204h11.937c0,6.369,3.081,9.75,9.252,10.146
			c7.163-0.196,10.841-2.583,11.041-7.162c0-3.777-3.482-6.364-10.444-7.759c-0.999-0.196-1.693-0.396-2.089-0.598
			c-12.138-2.783-18.204-7.856-18.204-15.221c0.597-11.339,8.252-17.405,22.979-18.203c11.937,0.596,18.204,6.267,18.801,17.01
			H1075.746z"/>
	</g>
</g>
</svg>
