<?xml version="1.0" encoding="utf-8"?>
<!-- Generator: Adobe Illustrator 16.0.0, SVG Export Plug-In . SVG Version: 6.00 Build 0)  -->
<!DOCTYPE svg PUBLIC "-//W3C//DTD SVG 1.1//EN" "http://www.w3.org/Graphics/SVG/1.1/DTD/svg11.dtd">
<svg version="1.1" id="图层_1" xmlns="http://www.w3.org/2000/svg" xmlns:xlink="http://www.w3.org/1999/xlink" x="0px" y="0px"
	 width="1100px" height="222px" viewBox="0 0 1100 222" enable-background="new 0 0 1100 222" xml:space="preserve">
<g>
	<g id="XMLID_4_">
		<g>
			<path d="M586.319,62.217c1.171,2.101,0.604,7.511,0.298,10.099c-1.952-0.624-0.392-4.757-0.894-6.831
				c-1.245,2.119-1.908,4.822-3.269,6.831c-2.455-1.105-2.5-4.628-3.862-6.831c-1.058,1.515,0.656,5.803-0.892,6.831
				c-1.364-2.196-0.212-6.917-0.591-10.099c0.297,0,0.591,0,0.891,0c1.857,2.101,2.589,5.333,3.862,8.022
				C584.023,68.237,583.904,63.961,586.319,62.217z"/>
			<path d="M575.324,62.512c-0.116,1.269-2.487,0.282-3.565,0.597c-0.375,2.891,0.771,7.307-0.592,9.208
				c-1.36-1.803-0.217-6.12-0.597-8.911c-0.603-0.686-2.463-0.11-3.565-0.297c0-0.202,0-0.398,0-0.597
				C568.434,61.531,573.896,61.531,575.324,62.512z"/>
			<path d="M564.036,165.912c0.208,3.309-4.385,2.076-7.131,2.076c-3.17,0-6.539,0-8.916,0c0.954-5.767,0.992-15.334,0-21.096
				c1.197-0.689,3.663-0.101,5.352-0.297c-1.311,5.229-0.253,12.82-0.598,19.016C555.922,166.481,561.273,165.444,564.036,165.912z"
				/>
			<path d="M564.333,139.762c-0.168,2.101-3.733,1.189-5.647,1.189c-134.894,0-271.096,0-406.453,0
				c-1.632,0-4.921,0.736-5.646-0.889c0.023-0.473-0.143-1.132,0.297-1.189c136.886,0,274.566,0,411.802,0
				C560.319,138.873,563.608,138.135,564.333,139.762z"/>
			<path d="M522.737,134.711c-3.815,0.127-2.234-8.352-2.083-11.885c0.22-4.902,0.339-10.436,0.598-16.342
				c0.463-10.634-1.414-24.72,7.428-26.441c6.233-1.218,10.271,0.859,18.421,0c-2.52-6.86,6.117-7.793,4.454-0.296
				c1.162,0.624,3.42,0.145,5.054,0.296c2.49-0.853,1.15-4.337,3.565-4.753c3.461-0.601,3.082,4.338,1.485,6.533
				c-1.898,2.615-4.534,2.767-9.21,2.677c0.247,6.694,1.967,14.467,3.269,21.095c2.115-1.274,1.714-6.014,5.05-5.352
				c4.499,0.898-2.214,9.392-3.564,11.885c0.915,4.005,1.673,7.326,2.971,11.885c0.681,2.387,4.507,10.194,0.298,10.402
				c-2.898,0.137-3.433-5.604-4.163-8.025c-1.07-3.544-1.843-6.232-2.671-9.211c-2.196,0.5-4.041,6.725-7.429,6.243
				c-0.772-0.112-1.937-1.056-2.08-1.786c-0.71-3.532,7.378-6.824,8.022-10.696c0.252-1.537-0.755-4.33-1.189-6.534
				c-1.31-6.679-2.582-12.636-3.268-19.907c-8.738,1.067-23.684-4.076-21.393,8.02c6.408,1.055,14.585-1.833,16.044,6.242
				c0.692,3.839,0,9.327,0,14.555c0,5.986,0.927,13.096-0.594,16.346c-1.293,2.748-6.558,5.338-9.805,2.968
				c-0.237-1.474-0.096-1.673,0.297-2.968c1.349-1.029,4.608-0.148,5.349-1.787c0.318-9.142,0.856-21.053-0.301-29.711
				c-2.303-1.657-7.329-0.591-10.99-0.889c-0.48,7.743-0.799,18.161-1.188,26.738C524.897,128.822,525.907,134.61,522.737,134.711z"
				/>
			<path d="M545.612,165.912c0.119,3.285-4.361,2.076-7.132,2.076c-3.182,0-6.512,0-8.91,0c0.951-5.966,0.951-15.421,0-21.393
				c1.682,0,3.366,0,5.051,0c-0.645,5.797-0.14,12.743-0.297,19.016C537.521,166.529,542.799,165.38,545.612,165.912z"/>
			<path d="M527.491,167.691c-1.197,0.689-3.663,0.106-5.352,0.297c-0.166-2.707-1.712-4.035-2.077-6.533c-3.072,0-6.145,0-9.211,0
				c-0.87,2.103-2.234,3.707-2.377,6.533c-0.891,0-1.785,0-2.674,0c2.653-7.057,6.994-13.982,8.319-21.393c1.584,0,3.168,0,4.754,0
				C521.757,153.617,524.146,161.127,527.491,167.691z M511.743,159.67c2.377,0,4.754,0,7.131,0c-0.4-2.692-2.178-6.522-3.564-9.211
				C514.329,153.735,512.528,156.193,511.743,159.67z"/>
			<path d="M517.687,120.449c7.909,3.456-12.318,10.195-13.965,8.617c-2.837-2.707,2.237-4.877,4.754-5.346
				c0-10.105,0-20.204,0-30.309c-1.721-0.158-4.219,0.455-5.051-0.591c-0.663-1.221-0.431-2.005,0-3.271
				c1.1-0.785,3.176-0.58,5.051-0.595c0.371-3.592-0.871-8.792,0.892-10.993c1.587-0.629,2.697,0.021,3.565,0.895
				c0,3.366,0,6.735,0,10.1c6.849-2.042,7.352,6.319,0.297,4.457c-0.689,8.917-0.101,19.113-0.297,28.523
				C514.655,121.582,515.624,120.471,517.687,120.449z"/>
			<path d="M497.779,146.596c1.981,0,3.96,0,5.942,0c-0.493,6.462-0.493,14.937,0,21.393c-1.688,0-3.366,0-5.051,0
				c0.659-5.479,0.125-12.158,0.298-18.124c-2.407,5.913-4.57,12.069-6.834,18.124c-1.188,0-2.377,0-3.565,0
				c-1.979-6.24-4.41-12.029-6.537-18.124c-0.4,5.354-0.748,13.226,0.297,18.124c-0.989,0-1.981,0-2.974,0
				c0.497-6.456,0.497-14.931,0-21.393c2.083,0,4.163,0,6.242,0c1.825,5.502,3.932,10.727,5.942,16.047
				C493.932,157.607,495.727,151.971,497.779,146.596z"/>
			<path d="M490.946,80.338c0.912,4.261-8.347,2.974-13.073,2.974c-9.889,0-21.556,0-31.788,0c-4.294,0-13.656,1.248-12.783-2.974
				c0.595-2.846,11.207-1.78,12.482-1.78c5.743,0,8.67,0,13.964,0c0.942-0.74-0.49-3.86,0.889-4.163
				c0.333-0.761,1.599-0.58,2.677-0.591c1.139,0.841,1.367,2.597,1.189,4.754c4.644,0,8.779,0,14.262,0
				C481.563,78.559,490.363,77.614,490.946,80.338z"/>
			<path d="M490.352,113.916c0,5.55,0.672,11.296,0,14.559c-0.937,4.533-6.703,7.895-10.997,5.345
				c-1.865-4.929,4.372-2.169,6.243-5.345c1.313-2.235,0.594-10.349,0.594-14.559c0-5.394,1.108-11.306-0.594-14.563
				c-1.771-3.381-6.712-1.649-10.696-2.077c0.234,2.784,9.086,6.521,8.02,10.099c-1.347,4.546-6.471-1.72-8.319-3.565
				c-2.552-2.552-4.175-4.412-6.237-6.534c-4.459,0-8.915,0-13.37,0c-1.893,3.253-4.269,6.448-7.43,8.91
				c-1.48,1.159-3.655,3.058-5.943,2.083c-1.482-5.612,6.614-6.347,8.022-10.993c-14.609-3.301-11.287,7.865-11.287,20.795
				c0,2.715,0,6.164,0,9.508c0,3.705,0.37,7.008-2.081,7.131c-3.672,0.184-2.377-11.713-2.377-16.342
				c0-12.625-2.798-26.824,10.4-25.549c-0.024-2.466-2.286-4.243-1.189-6.242c2.13-3.886,5.937,2.406,5.642,6.242
				c8.819,0,17.629,0,26.446,0c1.949-2.213,0.461-7.862,5.346-7.131c1.951,1.88,0.038,5.14-0.591,7.131
				C491.697,91.513,490.352,101.752,490.352,113.916z"/>
			<path d="M468.959,152.241c-0.131,1.025,0.116,1.667,0.297,2.377c-3.202-0.384-8.12-0.565-11.293,0
				c-0.674,0.416-0.106,2.071-0.294,2.97c3.26,0.804,8.474-0.354,10.989,1.189c1.156,2.297,1.21,6.638-0.294,8.619
				c-1.58,0.904-4.994,0.592-8.024,0.592c-2.463,0-6.804,1.07-6.533-1.779c2.07-0.752,7.758-0.057,11.288-0.297
				c0.588-0.804,0.175-2.601,0.297-3.867c-3.316-1.035-9.645,0.938-11.288-1.779c-0.522-1.723-0.38-4.786,0-6.539
				C456.741,150.922,464.048,152.775,468.959,152.241z"/>
			<path d="M448.752,114.213c-1.527,1.83-1.126,8.1-0.291,10.399c7.752,1.159,18.79,0.612,27.034,0.298
				c1.815-1.852,1.599-8.433,0.295-10.697C468.108,113.241,456.436,113.221,448.752,114.213z M446.972,129.066
				c-3.404-1.736-5.3-9.285-3.268-15.451c0.77-2.335,3.072-3.675,5.348-4.157c2.966-0.633,9.143-0.297,14.56-0.297
				c7.653,0,14.79-0.891,16.933,4.157c2.104,4.953,0.579,14.297-3.566,16.047c-3.063,1.287-9.632,0.592-15.152,0.592
				C456.415,129.957,449.753,130.488,446.972,129.066z"/>
			<path d="M446.084,154.618c-3.682-0.446-10.711-1.842-8.619,4.46c2.968,0,5.942,0,8.91,0
				C446.327,157.541,446.56,155.721,446.084,154.618z M450.24,165.912c0.122,0.712-0.544,0.645-0.297,1.484
				c-3.789,1.197-10.866,0.579-15.153,0.295c-2.342-2.544-1.883-11.166-0.594-14.557c3.515-1.408,11.936-1.408,15.447,0
				c1.021,1.849,0.454,5.292,0.597,8.021c-4.156,0-8.319,0-12.481,0c-0.545,0.854-0.425,3.581,0,4.455
				C441.185,166.34,447.296,165.661,450.24,165.912z"/>
			<path d="M429.736,167.988c-1.481,0-2.968,0-4.454,0c0.484-4.627,0.484-11.115,0-15.747c1.388,0,2.772,0,4.16,0
				C429.591,157.443,429.115,163.264,429.736,167.988z"/>
			<path d="M429.442,147.192c0,0.889,0,1.78,0,2.671c-1.286,0-2.576,0-3.862,0c0-0.891,0-1.782,0-2.671
				C426.866,147.192,428.156,147.192,429.442,147.192z"/>
			<path d="M421.717,167.988c-1.488,0-2.971,0-4.457,0c0.491-6.48,0.491-14.91,0-21.393c1.389,0,2.772,0,4.157,0
				C421.602,153.649,421.046,161.428,421.717,167.988z"/>
			<path d="M414.884,97.869c2.914,1.613,7.959,3.206,4.456,6.539c-5.087-0.778-8.824-4.115-12.775-6.242
				c-4.173-2.237-8.305-4.154-12.481-6.534c-4.006,4.964-9.158,11.754-16.934,10.991c-2.353-3.958,5.714-5.548,8.319-7.725
				c3.913-3.266,4.816-6.656,6.536-10.396c-4.082-0.377-9.882,0.969-12.185-1.188c0.045-3.006,2.19-10.036,6.24-7.131
				c0.838,1.456-0.351,2.324-0.291,3.863c10.609,0.38,22.756-0.775,32.383,0.591c0.473,3.321-1.079,6.985-2.678,9.21
				c-0.689,0-1.385,0-2.076,0c-1.738-1.144-0.948-3.53-0.301-5.346c-5.442,0-10.892,0-16.339,0
				c-2.926,3.357,2.479,4.659,5.349,6.237C406.514,93.159,410.219,95.29,414.884,97.869z"/>
			<path d="M416.963,112.428c0.346,2.623,0.886,11.709-2.376,11.587c-4.077-0.151-0.256-12.473-4.457-14.262
				c-3.878-1.646-12.918-0.294-19.907-0.294c-4.729,0-16.736-1.45-18.719,1.483c-2.181,3.229,1.549,12.841-2.673,13.073
				c-3.165,0.175-3.225-10.126-2.081-13.665c0.817-2.55,3.679-4.52,6.237-5.054c4.011-0.832,12.045-0.296,18.719-0.296
				C403.427,105,415.659,102.602,416.963,112.428z"/>
			<path d="M412.804,153.135c1.286,3.391,1.744,12.013-0.594,14.557c-3.049,0.318-8.426,0.811-10.996-0.295c0,2.178,0,4.359,0,6.533
				c-1.482,0-2.969,0-4.455,0c0.498-6.552,0.485-15.135,0-21.689c0.302,0.123,1.738-0.143,2.675,0
				c0.428,0.065,1.352,0.895,1.485,0.895c0.523,0.004,1.527-0.795,2.08-0.895C406.234,151.688,410.106,152.102,412.804,153.135z
				 M409.238,165.912c0.49-3.098,0.49-8.198,0-11.294c-1.935-0.487-5.791-0.487-7.725,0c-0.49,3.097-0.49,8.197,0,11.294
				C404.09,165.912,406.663,165.912,409.238,165.912z"/>
			<path d="M363.479,134.417c-2.944-4.561,5.523-4.567,9.508-5.647c8.248-2.237,15.296-5.572,16.048-15.451
				c1.177-1.123,3.107-0.371,3.859,0.598c0.03,3.096-0.25,5.889-1.482,7.722c5.592,2.147,14.535,4.786,21.987,7.132
				c2.665,0.836,8.565,1.027,6.536,5.351c-5.211,0.612-10.353-1.948-15.451-3.565c-5.038-1.602-10.259-3.093-15.155-4.754
				C383.169,130.769,373.104,134.874,363.479,134.417z"/>
			<path d="M376.553,173.932c0.294-6.486,0.85-15.397-0.294-21.393c-0.057-0.254,0.115-0.277,0.294-0.299
				c1.304,0.285,3.901-0.728,3.865,0.895c2.226-1.646,8.138-0.829,11.288-0.596c1.417,2.724,3.027,10.573,1.188,13.963
				c-1.732,3.197-8.94,1.178-12.18,0.895c0.196,1.984-0.392,4.752,0.298,6.236C380.112,174.316,377.946,173.74,376.553,173.932z
				 M389.034,165.611c0.481-3.043,0.481-7.947,0-10.993c-2.077-0.442-5.963-0.521-8.021,0c-0.494,3.001-0.494,7.995,0,10.993
				C383.039,166.102,387.005,166.102,389.034,165.611z"/>
			<path d="M372.69,152.241c0.185,5.17-0.371,11.07,0.297,15.747c-5.003-0.723-10.845,0.891-16.041-0.592
				c-2.275-3.172-0.467-10.434-1.486-14.857c0.901-0.688,3.063-0.102,4.455-0.298c0.192,4.364-0.384,9.499,0.3,13.37
				c2.012,0.662,5.227,0.122,7.723,0.301c1.714-3.123,0.71-9.591,0.597-13.671C369.921,152.241,371.306,152.241,372.69,152.241z"/>
			<path d="M371.798,77.07c-0.26,2.811,0.705,6.842-0.888,8.319c-1.298,0.413-1.756,0.009-2.974-0.297
				C366.139,81.622,367.556,72.714,371.798,77.07z"/>
			<path d="M368.233,91.035c7.784,0.164-1.433,9.57-2.674,12.185c-1.308,0.123-2.295-0.083-2.969-0.597
				C362.214,97.652,366.195,94.574,368.233,91.035z"/>
			<path d="M350.406,88.36c0.805,5.256,0,12.235,0,19.613c0,7.46,1.111,16.122-0.294,20.501c-1.555,4.822-8.686,7.176-13.073,4.156
				c-0.666-5.135,4.418-2.259,7.131-3.862c3.206-1.896,1.783-13.718,1.783-19.607c0-3.542,0-7.335,0-10.696
				c0-6.394,1.161-13.415-5.349-12.479c-1.629,12.595-3.168,25.535-6.239,37.734c-0.663,2.626-1.801,10.583-5.349,9.207
				c-2.829-1.094,0.381-8.539,0.892-10.695c2.644-11.139,4.896-23.283,5.645-35.952c-1.688-0.689-4.652-0.101-6.834-0.294
				c-1.589,12.657-4.162,25.501-7.428,37.437c-0.758,2.763-1.696,10.873-5.348,9.504c-2.847-1.063,0.626-8.598,1.188-10.695
				c2.998-11.178,5.467-23.523,6.83-35.952c-1.512-0.862-5.112,0.363-6.236-0.891c-1.232-2.421,4.074-14.273,6.831-9.208
				c1.177,2.157-1.037,3.01-1.188,5.345C333.744,82.54,348.813,77.92,350.406,88.36z"/>
			<path d="M339.713,148.973c-0.995,1.013-0.597,3.881-0.298,5.352c3.207,0.949,8.831-0.512,11.588,0.887
				c1.316,2.878,1.626,10.408-0.597,12.48c-4.48,0.473-10.973,0.514-15.447,0c0-0.494,0-0.99,0-1.482
				c2.614-1.12,8.949,0.415,12.479-0.598c0-1.979,0-3.961,0-5.941c-2.778-1.386-8.357,0.04-11.587-0.893
				c-1.412-2.508-1.286-9.053,0-11.584c3.981-1.07,11.002-0.684,15.45-0.301c-0.176,0.966,0.201,1.382,0.294,2.08
				C348.204,148.58,343.07,148.414,339.713,148.973z"/>
			<path d="M326.343,165.611c0.128,1.021-0.119,1.667-0.297,2.377c-3.233-0.231-7.49,0.563-9.809-0.592
				c-1.896-2.757-0.959-8.352-1.188-12.778c-0.131-0.858-2.246,0.264-2.377-0.595c0-0.395,0-0.789,0-1.188
				c-0.178-1.171,1.635-0.352,2.377-0.595c0-1.091,0-2.178,0-3.269c1.269-0.122,2.638-0.133,3.565-0.591
				c1.287,0.199,0.276,2.695,0.595,3.86c2.181,0,4.361,0,6.536,0c0,0.691,0,1.387,0,2.082c-2.077,0-4.159,0-6.236,0
				c-0.693,3.072-0.104,7.425-0.301,10.99C320.549,166.381,324.539,165.959,326.343,165.611z"/>
			<path d="M313.566,108.271c4.591,4.282-3.903,5.976-6.837,7.425c-0.49,5.844,1.052,13.727-0.888,18.124
				c-6.341,0.937-2.529-10.699-3.565-16.042c-3.741,0.916-5.976,3.334-10.4,3.566c-3.752-5.73,7.141-6.043,10.4-8.616
				c0-7.033,0-14.063,0-21.095c-2.938-1.031-8.732,0.808-10.4-1.489c1.035-4.68-0.011-14.036,5.646-12.182
				c1.145,2.445-0.451,5.93-0.895,8.617c1.881,0,3.769,0,5.648,0c0.268-4.089-0.612-9.327,0.595-12.476
				c1.016-0.285,1.842-0.93,2.971-0.297c1.83,2.728,0.475,8.637,0.888,12.773c7.954-2.279,8.418,6.842,0.301,4.753
				c-0.692,5.848-0.099,12.979-0.301,19.315C309.398,110.237,310.679,108.449,313.566,108.271z"/>
			<path d="M310.596,167.988c-1.489,0-2.972,0-4.461,0c0.229-3.928,0.878-9.944-0.294-13.37c-1.934-0.487-5.791-0.487-7.725,0
				c-1.156,3.251-0.606,9.638-0.301,13.37c-1.58,0-3.167,0-4.75,0c1.149-5.963,0.598-14.939,0.297-21.393c1.385,0,2.77,0,4.16,0
				c0,1.984,0,3.961,0,5.943c2.213-0.266,8.149-0.622,11.291,0C311.778,155.316,309.4,163.439,310.596,167.988z"/>
			<path d="M285.341,153.135c0.517-1.266,2.724-0.84,4.456-0.895c-1.227,6.4,1.135,16.389-1.485,21.393
				c-3.004,0.191-8.097,0.721-12.182,0.299c-1.04-0.107-3.352,0.576-2.674-1.486c2.412-1.197,8.289,0.469,11.587-0.59
				c0.598-0.893,0.169-2.803,0.298-4.164c-2.042,0.348-8.005,0.568-10.993,0c-2.342-2.543-1.884-11.166-0.595-14.556
				C276.059,151.926,283.103,151.546,285.341,153.135z M285.043,165.912c0.49-3.098,0.49-8.198,0-11.294
				c-1.934-0.487-5.794-0.487-7.725,0c-0.68,3.087-0.112,7.416-0.298,10.993C279.179,166.229,282.411,165.771,285.043,165.912z"/>
			<path d="M279.101,132.331c0.196,3.532-12.149,3.054-15.153,1.789c-7.861-3.313-3.723-19.667-4.753-30.901
				c-6.242,0-12.479,0-18.722,0c-1.423,10.435-5.782,19.509-11.885,26.146c-1.628,1.771-4.323,5.818-7.425,3.266
				c-0.588-3.045,2.52-4.725,4.16-6.533c5.196-5.756,9.018-12.814,10.396-22.878c-4.172-1.182-14.458,2.086-15.744-1.188
				c-1.836-4.665,8.352-3.269,11.884-3.269c5.648,0,10.443,0,15.15,0c0-3.948,0-8.503,0-12.775c0-4.341-0.678-8.8,0.894-11.885
				c1.325-0.44,1.843-0.098,2.972,0.294c1.332,6.988,0.237,16.4,0.595,24.367c4.236,0,9.22,0,14.559,0
				c3.99,0,11.95-1.132,12.479,1.78c0.879,4.819-10.432,1.893-14.56,2.677c-0.546,4.385-0.3,8.958-0.3,13.371
				c0,3.957-0.78,10.565,0.895,12.476C267.201,132.103,278.846,127.744,279.101,132.331z"/>
			<path d="M271.376,77.07c7.85-2.012,0.671,8.544-0.892,10.997c-1.141,1.782-4.478,8.028-7.131,7.722
				c-5.093-0.588,1.94-8.037,3.268-10.099C268.788,82.314,269.988,80.068,271.376,77.07z"/>
			<path d="M269.296,167.988c-1.485,0-2.972,0-4.457,0c0.47-4.614,0.506-11.137,0-15.747c1.388,0,2.772,0,4.159,0
				C269.121,157.465,268.705,163.231,269.296,167.988z"/>
			<path d="M268.999,147.192c0,0.889,0,1.78,0,2.671c-1.287,0-2.576,0-3.862,0c0-0.891,0-1.782,0-2.671
				C266.423,147.192,267.712,147.192,268.999,147.192z"/>
			<path d="M262.459,165.912c0.215,3.309-4.382,2.076-7.128,2.076c-3.17,0-6.539,0-8.916,0c0.954-5.767,0.992-15.334,0-21.096
				c1.197-0.689,3.663-0.101,5.349-0.297c-1.308,5.229-0.25,12.82-0.595,19.016C254.349,166.481,259.699,165.444,262.459,165.912z"
				/>
			<path d="M237.802,165.611c-0.464,0.434-0.262,1.523-0.301,2.377c-3.482-0.273-8.254,0.729-10.396-0.889
				c-1.159-3.203-0.36-8.357-0.595-12.481c-0.229-0.861-2.448,0.273-2.674-0.595c0-0.395,0-0.789,0-1.188
				c-0.116-1.204,1.851-0.327,2.674-0.595c0-1.091,0-2.178,0-3.269c1.075-0.208,2.463-0.109,3.266-0.591
				c1.286,0.199,0.273,2.695,0.594,3.86c2.279,0,4.559,0,6.837,0c0,0.691,0,1.387,0,2.082c-2.181,0-4.361,0-6.537,0
				c-0.386,3.161-0.767,8.887,0.295,11.588C233.224,165.787,236.013,166.199,237.802,165.611z"/>
			<path d="M232.453,84.795c1.349,2.106,7.829,9.793,3.266,10.696c-2.556,0.511-5.419-5.506-6.831-7.725
				c-1.352-2.119-9.136-11.353-2.082-11.288C228.752,78.594,230.166,81.218,232.453,84.795z"/>
			<path d="M219.975,152.539c2.998,2.744,0.606,10.88,1.782,15.449c-1.301-0.285-3.9,0.73-3.862-0.889
				c-2.288,1.625-8.382,0.854-11.588,0.592c-1.836-1.602-1.557-7.773-0.297-9.802c2.888-1.275,8.296-0.024,11.588-0.895
				c0.333-5.103-8.836-1.899-12.182-2.377c0.653-0.435-0.176-2.353,0.891-2.377C210.806,152.398,215.958,151.905,219.975,152.539z
				 M217.301,165.611c0.642-1.53,0.134-4.223,0.297-6.239c-2.867,0.109-6.21-0.269-8.616,0.298
				c-0.356,1.918-0.553,4.717,0.297,6.242C211.875,165.733,215.191,166.273,217.301,165.611z"/>
			<path d="M207.793,89.847c0.243,3.872-8.305,2.376-11.588,2.376c-5.329,0-9.457,0-13.964,0
				c5.812,9.788,13.067,20.65,19.907,30.901c1.987,2.983,6.353,6.54,4.456,10.696c-3.33,1.248-6.554-5.836-8.319-8.617
				c-6.079-9.541-13.477-20.017-19.315-28.817c-2.748,13.272-8.8,24.272-18.121,31.792c-2.758,2.225-6.491,5.867-10.695,4.751
				c-1.45-3.209,5.567-6.622,8.021-8.616c9.124-7.398,14.598-17.822,16.636-31.792c-3.898-0.538-8.399-0.298-13.668-0.298
				c-3.571,0-11.691,1.329-11.882-2.08c-0.211-3.789,8.329-2.377,11.882-2.377c5.467,0,9.645,0,14.263,0
				c2.169-3.875-1.59-13.676,4.753-13.37c2.062,3.206,0.071,9.124,0,13.073c4.291,0.543,9.185,0.297,14.859,0.297
				C198.915,87.767,207.579,86.477,207.793,89.847z"/>
			<path d="M201.554,165.611c0.006,0.704-0.512,0.873-0.298,1.785c-3.788,1.199-10.865,0.58-15.155,0.295
				c-2.279-2.647-2.279-12.506,0-15.152c4.436-0.09,12.526-1.486,15.155,1.188c0.604,1.972,0.164,4.988,0.298,7.431
				c-4.258,0-8.519,0-12.776,0c-0.675,1.289-0.214,3.687,0.294,4.754C193.159,165.738,197.952,166.271,201.554,165.611z
				 M197.69,159.078c-0.05-1.537,0.185-3.357-0.297-4.461c-3.814-0.479-10.797-1.732-8.916,4.461
				C191.546,159.078,194.621,159.078,197.69,159.078z"/>
			<path d="M181.94,152.241c0.188,0.808-0.374,2.359,0.3,2.675c-1.479,0.46-5.237-0.526-7.13,0.297
				c-0.488,3.624-0.488,9.154,0,12.775c-1.587,0-3.174,0-4.754,0c1.09-4.287,0.576-10.979,0.294-15.746
				c1.21,0.383,4.056-0.883,3.866,0.895C175.921,151.766,179.29,152.363,181.94,152.241z"/>
			<path d="M162.926,167.1c-2.778,1.617-9.374,0.865-13.071,0.592c-1.746-2.606-2.303-13.059-1.485-18.122
				c0.653-4.044,5.634-2.974,10.993-2.974c2.381,0,6.748-1.129,6.534,1.785c-2.523,1.002-9.294-0.371-12.773,0.592
				c-0.687,4.861-0.104,10.987-0.297,16.342c1.916,1.039,6.539,0.674,8.91,0.297c1.161-1.81,0.359-5.586,0.595-8.318
				c-2.437-0.057-6.258,0.073-7.722,0c0-0.795,0-1.584,0-2.377c4.159,0,8.316,0,12.476,0c-1.091,3.256-0.636,9.354-0.295,13.072
				C165.584,167.607,162.735,168.871,162.926,167.1z"/>
		</g>
	</g>
	<g id="XMLID_1_">
		<g>
			<path fill="#C02E3C" d="M114.783,82.782c-0.375,6.286-10.158,6.24-10.309-0.158c-0.065-2.79,1.705-4.757,4.373-5.154
				C112.709,76.895,114.979,79.502,114.783,82.782z"/>
			<path fill="#C02E3C" d="M92.292,157.438c0-1.664,0-3.329,0-4.997c-0.887,0-1.771,0-2.655,0c0-0.622,0-1.248,0-1.875
				c2.03,0,4.061,0,6.091,0c0,2.291,0,4.582,0,6.872C94.583,157.438,93.437,157.438,92.292,157.438z"/>
			<path fill="#C02E3C" d="M91.511,157.438c-3.229,0-6.455,0-9.684,0c0-4.733,0-9.474,0-14.212c4.634,0,9.267,0,13.9,0
				c0,1.563,0,3.125,0,4.686c-1.042,0-2.082,0-3.124,0c-0.614,0.096-0.184-0.857-0.312-1.25c-2.292,0-4.582,0-6.873,0
				c-0.192,1.964-0.417,5.313,0.155,7.031c1.425,0.657,4.01,0.151,5.937,0.309C91.511,155.148,91.511,156.293,91.511,157.438z"/>
			<path fill="#C02E3C" d="M77.922,84.187c-1.606-0.423-3.085-0.976-4.842-1.25c1.241-0.789,3.078-0.983,4.686-1.404
				c0.614-1.521,0.965-3.305,1.406-5c0.658,1.423,0.944,3.22,1.405,4.842c1.553,0.479,3.094,0.967,4.842,1.25
				c-1.211,0.82-3.049,1.014-4.686,1.407c-0.588,1.546-0.961,3.308-1.405,4.996C78.669,87.605,78.383,85.808,77.922,84.187z"/>
			<path fill="#C02E3C" d="M69.956,143.383c0.99-0.361,2.653-0.053,3.904-0.156c2.073,4.751,4.371,9.271,6.404,14.057
				c-3.854,0-7.705,0-11.559,0c0.469-0.935,0.938-1.871,1.405-2.809c1.667,0,3.332,0,4.998,0
				C73.5,150.666,71.807,146.947,69.956,143.383z"/>
			<path fill="#C02E3C" d="M62.146,157.438c2.147-4.775,4.657-9.188,6.873-13.897c0.787,1.086,1.191,2.557,1.874,3.749
				c-1.498,3.553-3.455,6.646-4.998,10.149C64.646,157.438,63.396,157.438,62.146,157.438z"/>
			<path fill="#C02E3C" d="M56.991,147.134c-0.949-0.562-2.8-0.222-4.217-0.313c0-1.199,0-2.393,0-3.594c2.707,0,5.416,0,8.122,0
				c0,4.686,0,9.371,0,14.055c-4.375,0.367-9.423,0.057-14.058,0.157c0-4.788,0-9.576,0-14.368c1.302,0,2.604,0,3.905,0
				c0,3.49,0,6.978,0,10.465c1.673,0.266,4.417,0.254,6.092,0C57.435,152.023,57.159,148.898,56.991,147.134z"/>
			<path fill="#C02E3C" d="M100.882,101.994c4.054,12.295,9.915,22.78,18.743,30.301c3.113-7.936,4.063-21.26,1.249-30.301
				C114.21,101.994,107.547,101.994,100.882,101.994z M105.567,76.847c-2.979-2.697-6.285-5.067-9.996-7.029
				c0.13,10.49,1.612,19.629,3.905,27.958c6.664-0.104,13.744,0.208,20.148-0.157c-1.468-3.685-3.114-7.192-5.154-10.307
				C120.705,81.644,111.919,71.894,105.567,76.847z M23.099,132.605c8.79-7.194,14.927-18.391,19.211-30.612
				c-6.872,0-13.744,0-20.617,0C18.826,111.098,19.8,124.777,23.099,132.605z M47.308,69.504
				c-11.195,6.349-19.688,15.404-24.365,28.272c6.872,0,13.744,0,20.617,0C45.79,89.438,47.636,79.882,47.308,69.504z
				 M75.11,172.594c-18.715,0.82-32.59-5.96-42.484-14.842c-10.229-9.178-17.516-21.374-18.899-38.732
				c-1.485-18.63,6.053-33.292,14.683-42.643c6.803-7.372,15.122-13.271,26.553-16.712c3.917-1.179,8.359-1.92,12.495-2.185
				c18.525-1.194,33.242,6.09,42.797,14.838c9.809,8.978,17.237,21.799,18.587,39.047c1.432,18.325-6.178,33.198-14.838,42.486
				C105.283,163.195,92.288,171.834,75.11,172.594z M90.729,67.475c-9.897-4.795-28.4-4.979-38.423-0.157
				c0.186,11.486-1.306,21.29-3.437,30.458c15.099,0,30.196,0,45.295,0C92.051,88.646,90.556,78.895,90.729,67.475z M71.206,140.729
				c-7.892-0.009-14.483-4.179-18.588-8.903c-4.425-5.095-7.305-11.016-8.746-18.9c-3.271,7.76-7.588,14.811-12.651,20.619
				c-1.732,1.983-3.715,3.68-5.154,5.777c8.64,14.34,22.648,27.088,45.296,27.021c22.879-0.066,36.655-12.913,45.296-27.332
				c-3.341-3.917-6.882-7.515-9.841-11.87c-2.938-4.33-5.399-9.106-7.653-14.215c-0.009-0.094-0.022-0.185-0.155-0.156
				c-1.509,7.928-4.215,14.047-8.902,19.213C85.932,136.578,79.357,140.736,71.206,140.729z M90.104,121.047
				c2.791-5.215,4.85-11.786,3.905-19.053c-14.995,0-29.989,0-44.983,0c-0.221,0.039-0.178,0.34-0.313,0.469
				c-0.555,9.577,2.383,16.887,6.717,22.959c4.732,6.633,13.802,12.633,23.272,7.809C83.44,130.815,87.392,126.117,90.104,121.047z"
				/>
		</g>
	</g>
	<g>
		<path fill="#C02E3C" d="M606.89,112.297c-1.146,1.908-3.691,2.673-5.729,1.527l-0.254-0.128c-2.037-1.272-2.674-3.819-1.527-5.856
			l9.166-15.149c1.146-2.037,3.691-2.545,5.729-1.4l0.127,0.127c2.037,1.146,2.801,3.691,1.527,5.729L606.89,112.297z
			 M625.604,160.162c6.492-2.163,11.33-4.709,14.767-7.511c3.438-2.8,5.729-5.855,6.62-9.419c0.765-2.292,1.146-4.838,1.4-7.385
			c0.128-2.291,2.037-3.818,4.201-3.818h0.255c1.146,0,2.164,0.254,3.055,1.272c0.765,0.764,1.146,1.782,1.146,3.056
			c-0.128,1.909-0.382,3.818-0.637,5.474c-0.382,2.673-1.146,5.22-2.164,7.511l51.686,15.914c2.165,0.637,3.438,2.928,2.674,5.219
			v0.254c-0.764,2.166-3.056,3.311-5.347,2.674l-52.705-16.422l-1.018-0.382c-0.637,0.637-1.146,1.272-1.782,1.782
			c-9.548,8.783-28.771,13.24-42.521,15.658c-2.292,0.383-4.583-1.145-4.838-3.438v-0.381c-0.382-2.164,1.146-4.328,3.311-4.838
			C612.747,163.982,620.003,162.072,625.604,160.162z M693.585,133.175c0-2.038-0.637-3.819-2.037-5.22
			c-1.527-1.4-3.31-2.037-5.219-2.037h-63.78c-2.036,0-3.819,0.637-5.22,2.037s-2.037,3.182-2.037,5.22v15.913
			c0,2.418-1.909,4.2-4.201,4.2h-0.127c-2.291,0-4.201-1.782-4.201-4.2v-15.913c0-6.493,3.565-12.095,9.549-14.641
			c2.036-0.765,3.945-1.272,6.237-1.272h63.78c2.164,0,4.328,0.508,6.11,1.272c3.946,1.655,6.747,4.583,8.53,8.402
			c0.891,2.036,1.272,4.073,1.272,6.238v15.913c0,2.418-1.91,4.2-4.202,4.2h-0.254c-2.291,0-4.201-1.782-4.201-4.2V133.175z
			 M617.202,76.523c0,2.292-1.91,4.201-4.201,4.201h-0.127c-2.419,0-4.201-1.91-4.201-4.201v-9.803c0-2.418,1.782-4.201,4.201-4.201
			h0.127c2.291,0,4.201,1.783,4.201,4.201V76.523z M642.918,69.904h58.179c1.4,0,2.546,0.636,3.438,1.782
			c0.763,1.019,1.018,2.418,0.509,3.692l-3.438,10.821c-0.764,2.164-3.056,3.31-5.22,2.673c-1.273-0.382-2.036-1.146-2.545-2.164
			c-0.511-1.019-0.638-2.165-0.256-3.311l1.655-4.965h-31.317c0,0.382,0,0.637-0.127,0.891l-1.528,4.965
			c0.255,0,0.509,0.128,0.764,0.254l43.921,23.934c2.037,1.273,2.801,3.82,1.655,5.728c-1.146,2.166-3.692,2.802-5.729,1.783
			l-44.048-24.061c-0.128,0-0.128,0-0.254-0.127c-4.457,8.02-10.694,14.258-18.588,18.332c-2.673,1.401-5.474,2.546-8.274,3.692
			c-1.146,0.255-2.292,0.127-3.437-0.382c-1.02-0.637-1.656-1.528-1.91-2.674l-0.127-0.382c-0.51-2.036,0.636-4.201,2.673-4.838
			c2.419-0.891,4.711-1.782,6.874-2.928c7.002-3.691,12.35-9.419,16.168-16.422c1.146-2.418,2.292-4.837,3.056-7.766h-19.096
			c-3.056,0-5.093-3.183-3.692-5.983l4.201-8.911c1.019-2.165,3.438-3.055,5.602-2.037h0.127c2.037,1.146,2.928,3.565,2.037,5.601
			L642.918,69.904z"/>
		<path fill="#C02E3C" d="M733.054,90.018c1.91,0,3.691,0.382,5.347,1.019c4.965,2.292,8.274,7.001,8.274,12.477v55.759
			c0,2.801,2.037,4.966,4.838,4.966h3.056c2.292,0,4.201,1.781,4.201,4.2v0.127c0,2.293-1.909,4.203-4.201,4.203h-3.056
			c-7.256,0-13.367-6.112-13.367-13.496v-55.759c0-1.401-0.509-2.674-1.4-3.438c-1.018-0.892-2.292-1.4-3.691-1.4h-4.583
			c-2.291,0-4.201-1.91-4.201-4.202v-0.254c0-2.292,1.91-4.201,4.201-4.201H733.054z M744.511,76.523
			c0,2.164-1.782,4.073-4.201,4.073h-0.254c-2.164,0-4.074-1.91-4.074-4.073V62.138c0-2.292,1.91-4.201,4.074-4.201h0.254
			c2.419,0,4.201,1.91,4.201,4.201V76.523z M810.964,60.992c2.165,0,4.201,0.509,6.111,1.273c3.947,1.655,6.747,4.583,8.529,8.401
			c0.765,2.038,1.272,3.947,1.272,6.239v79.82c0,2.038,0.637,3.692,2.037,5.093c1.401,1.4,2.929,2.037,4.838,2.164
			c2.165,0,3.946,1.91,3.946,4.074v0.254c0,1.146-0.382,2.164-1.272,3.055c-0.765,0.766-1.909,1.146-3.056,1.146
			c-6.11-0.254-11.457-3.818-13.876-9.547c-0.764-2.038-1.273-3.947-1.273-6.239v-79.82c0-2.165-0.637-3.947-2.036-5.22
			c-1.4-1.4-3.184-2.165-5.221-2.165h-25.206v40.865h22.661c2.418,0,4.201,1.782,4.201,4.201v0.254c0,2.291-1.783,4.074-4.201,4.074
			h-22.661v49.395c0,2.291-1.909,4.201-4.2,4.201h-0.255c-2.419,0-4.201-1.91-4.201-4.201v-49.395h-15.149
			c-2.419,0-4.201-1.783-4.201-4.074v-0.254c0-2.419,1.782-4.201,4.201-4.201h15.149V69.521h-14.259
			c-2.291,0-4.201-1.909-4.201-4.074v-0.254c0-2.292,1.91-4.201,4.201-4.201H810.964z"/>
		<path fill="#C02E3C" d="M956.224,60.737c2.164,0,4.201,1.91,4.201,4.201v0.128c0,2.291-2.037,4.201-4.201,4.201h-43.538v57.16
			h47.739c2.292,0,4.201,1.781,4.201,4.201v0.254c0,2.164-1.909,4.201-4.201,4.201h-47.739v35.391c0,2.293-1.91,4.201-4.201,4.201
			h-0.128c-2.291,0-4.201-1.908-4.201-4.201v-35.391h-47.866c-2.165,0-4.201-2.037-4.201-4.201v-0.254
			c0-2.42,2.036-4.201,4.201-4.201h47.866v-57.16H860.49c-2.291,0-4.201-1.91-4.201-4.201v-0.128c0-2.292,1.91-4.201,4.201-4.201
			H956.224z M883.532,111.277c0.637,2.165-0.383,4.457-2.419,5.348l-0.255,0.127c-2.291,0.764-4.709-0.381-5.474-2.547
			l-11.712-31.698c-0.637-2.038,0.382-4.456,2.545-5.348l0.256-0.127c2.164-0.763,4.583,0.382,5.346,2.547L883.532,111.277z
			 M948.204,99.566c-1.91,5.092-4.201,10.311-6.493,15.148c-1.019,2.164-3.565,2.929-5.729,1.91h-0.127
			c-2.036-1.02-2.928-3.691-1.782-5.602c2.164-4.837,4.201-9.548,6.11-14.513c1.91-5.092,3.564-10.438,4.965-16.294
			c0.638-2.165,2.802-3.565,5.093-3.184c1.146,0.255,2.036,0.892,2.801,2.038c0.509,0.891,0.764,2.037,0.382,3.182
			C952.022,88.49,950.24,94.219,948.204,99.566z"/>
		<path fill="#C02E3C" d="M984.744,131.647c0-2.292,0.383-4.201,1.273-6.239c1.653-3.818,4.455-6.746,8.529-8.401
			c1.781-0.892,3.946-1.272,6.11-1.272h70.018c2.164,0,4.201,0.381,6.111,1.272c3.946,1.655,6.747,4.583,8.402,8.401
			c1.018,2.038,1.273,3.947,1.273,6.239v25.842c0,2.292-0.256,4.329-1.273,6.237c-1.655,3.947-4.456,6.748-8.402,8.531
			c-1.91,0.764-3.947,1.273-6.111,1.273h-70.018c-2.164,0-4.329-0.51-6.11-1.273c-4.074-1.783-6.876-4.584-8.529-8.531
			c-0.891-1.908-1.273-3.945-1.273-6.237V131.647z M1084.552,91.164c0,2.038-0.51,4.201-1.273,6.237
			c-1.655,3.82-4.583,6.749-8.402,8.275c-2.037,0.892-4.072,1.401-6.365,1.401h-77.274c-1.4,0-2.545-0.637-3.437-1.783
			c-0.765-1.018-1.02-2.418-0.509-3.692l12.856-39.464c0.638-2.292,2.929-3.438,5.221-2.801c1.145,0.509,1.909,1.018,2.546,2.037
			c0.637,1.146,0.637,2.292,0.255,3.311L997.22,98.42h71.291c2.164,0,3.818-0.764,5.221-2.164c1.399-1.4,2.163-3.055,2.163-5.092
			V78.942c0-2.419,1.909-4.201,4.201-4.201h0.255c2.292,0,4.201,1.782,4.201,4.201V91.164z M993.273,157.489
			c0,2.165,0.764,3.692,2.164,5.22c1.528,1.4,3.183,2.164,5.22,2.164h70.018c1.91,0,3.692-0.764,5.093-2.164
			c1.4-1.527,2.163-3.055,2.163-5.22v-25.842c0-2.038-0.763-3.692-2.163-5.093s-3.183-2.292-5.093-2.292h-70.018
			c-2.037,0-3.691,0.892-5.22,2.292c-1.4,1.4-2.164,3.055-2.164,5.093V157.489z"/>
	</g>
</g>
</svg>
